<svg width="1399" height="500" viewBox="0 0 1399 500" fill="none" xmlns="http://www.w3.org/2000/svg">
  <g filter="url(#filter0_d_1_15)">
    <g filter="url(#filter1_d_1_15)">
      <path
        d="M50 113C50 68.8172 85.8172 33 130 33H1269C1313.18 33 1349 68.8172 1349 113V386C1349 430.183 1313.18 466 1269 466H130C85.8172 466 50 430.183 50 386V113Z"
        fill="black" />
    </g>
    <path
      d="M689.071 152.455V199H680.571L660.321 169.705H659.98V199H650.139V152.455H658.776L678.866 181.727H679.276V152.455H689.071ZM712.929 199.682C709.338 199.682 706.247 198.955 703.656 197.5C701.08 196.03 699.096 193.955 697.702 191.273C696.308 188.576 695.611 185.386 695.611 181.705C695.611 178.114 696.308 174.962 697.702 172.25C699.096 169.538 701.058 167.424 703.588 165.909C706.134 164.394 709.118 163.636 712.543 163.636C714.846 163.636 716.99 164.008 718.974 164.75C720.974 165.477 722.717 166.576 724.202 168.045C725.702 169.515 726.868 171.364 727.702 173.591C728.535 175.803 728.952 178.394 728.952 181.364V184.023H699.474V178.023H719.838C719.838 176.629 719.535 175.394 718.929 174.318C718.323 173.242 717.482 172.402 716.406 171.795C715.346 171.174 714.111 170.864 712.702 170.864C711.232 170.864 709.929 171.205 708.793 171.886C707.671 172.553 706.793 173.455 706.156 174.591C705.52 175.712 705.194 176.962 705.179 178.341V184.045C705.179 185.773 705.497 187.265 706.134 188.523C706.785 189.78 707.702 190.75 708.884 191.432C710.065 192.114 711.467 192.455 713.088 192.455C714.164 192.455 715.149 192.303 716.043 192C716.937 191.697 717.702 191.242 718.338 190.636C718.974 190.03 719.459 189.288 719.793 188.409L728.747 189C728.293 191.152 727.361 193.03 725.952 194.636C724.558 196.227 722.755 197.47 720.543 198.364C718.346 199.242 715.808 199.682 712.929 199.682ZM742.736 164.091L749.145 176.295L755.713 164.091H765.645L755.531 181.545L765.918 199H756.031L749.145 186.932L742.372 199H732.372L742.736 181.545L732.736 164.091H742.736ZM789.963 164.091V171.364H768.94V164.091H789.963ZM773.713 155.727H783.395V188.273C783.395 189.167 783.531 189.864 783.804 190.364C784.077 190.848 784.455 191.189 784.94 191.386C785.44 191.583 786.016 191.682 786.668 191.682C787.122 191.682 787.577 191.644 788.031 191.568C788.486 191.477 788.834 191.409 789.077 191.364L790.599 198.568C790.115 198.72 789.433 198.894 788.554 199.091C787.675 199.303 786.607 199.432 785.349 199.477C783.016 199.568 780.971 199.258 779.213 198.545C777.471 197.833 776.115 196.727 775.145 195.227C774.175 193.727 773.698 191.833 773.713 189.545V155.727ZM801.929 199.591C800.429 199.591 799.141 199.061 798.065 198C797.005 196.924 796.474 195.636 796.474 194.136C796.474 192.652 797.005 191.379 798.065 190.318C799.141 189.258 800.429 188.727 801.929 188.727C803.384 188.727 804.656 189.258 805.747 190.318C806.838 191.379 807.384 192.652 807.384 194.136C807.384 195.136 807.126 196.053 806.611 196.886C806.111 197.705 805.452 198.364 804.634 198.864C803.815 199.348 802.914 199.591 801.929 199.591ZM815.332 164.091H825.014V200.727C825.014 203.424 824.484 205.606 823.423 207.273C822.363 208.939 820.84 210.159 818.855 210.932C816.885 211.705 814.529 212.091 811.787 212.091C811.454 212.091 811.135 212.083 810.832 212.068C810.514 212.068 810.181 212.061 809.832 212.045V204.477C810.09 204.492 810.317 204.5 810.514 204.5C810.696 204.515 810.893 204.523 811.105 204.523C812.666 204.523 813.757 204.189 814.378 203.523C815.014 202.871 815.332 201.886 815.332 200.568V164.091ZM820.151 159.591C818.726 159.591 817.499 159.114 816.469 158.159C815.438 157.189 814.923 156.03 814.923 154.682C814.923 153.348 815.438 152.205 816.469 151.25C817.499 150.28 818.726 149.795 820.151 149.795C821.605 149.795 822.84 150.28 823.855 151.25C824.885 152.205 825.401 153.348 825.401 154.682C825.401 156.03 824.885 157.189 823.855 158.159C822.84 159.114 821.605 159.591 820.151 159.591ZM861.815 174.045L852.952 174.591C852.8 173.833 852.474 173.152 851.974 172.545C851.474 171.924 850.815 171.432 849.997 171.068C849.194 170.689 848.232 170.5 847.111 170.5C845.611 170.5 844.346 170.818 843.315 171.455C842.285 172.076 841.77 172.909 841.77 173.955C841.77 174.788 842.103 175.492 842.77 176.068C843.437 176.644 844.58 177.106 846.202 177.455L852.52 178.727C855.914 179.424 858.444 180.545 860.111 182.091C861.777 183.636 862.611 185.667 862.611 188.182C862.611 190.47 861.937 192.477 860.588 194.205C859.255 195.932 857.421 197.28 855.088 198.25C852.77 199.205 850.096 199.682 847.065 199.682C842.444 199.682 838.762 198.72 836.02 196.795C833.293 194.856 831.694 192.22 831.224 188.886L840.747 188.386C841.035 189.795 841.732 190.871 842.838 191.614C843.944 192.341 845.361 192.705 847.088 192.705C848.785 192.705 850.149 192.379 851.179 191.727C852.224 191.061 852.755 190.205 852.77 189.159C852.755 188.28 852.384 187.561 851.656 187C850.929 186.424 849.808 185.985 848.293 185.682L842.247 184.477C838.838 183.795 836.3 182.614 834.634 180.932C832.982 179.25 832.156 177.106 832.156 174.5C832.156 172.258 832.762 170.326 833.974 168.705C835.202 167.083 836.921 165.833 839.134 164.955C841.361 164.076 843.967 163.636 846.952 163.636C851.361 163.636 854.83 164.568 857.361 166.432C859.906 168.295 861.391 170.833 861.815 174.045ZM908.952 165.841C908.77 164.008 907.99 162.583 906.611 161.568C905.232 160.553 903.361 160.045 900.997 160.045C899.391 160.045 898.035 160.273 896.929 160.727C895.823 161.167 894.974 161.78 894.384 162.568C893.808 163.356 893.52 164.25 893.52 165.25C893.49 166.083 893.664 166.811 894.043 167.432C894.437 168.053 894.974 168.591 895.656 169.045C896.338 169.485 897.126 169.871 898.02 170.205C898.914 170.523 899.868 170.795 900.884 171.023L905.065 172.023C907.096 172.477 908.959 173.083 910.656 173.841C912.353 174.598 913.823 175.53 915.065 176.636C916.308 177.742 917.27 179.045 917.952 180.545C918.649 182.045 919.005 183.765 919.02 185.705C919.005 188.553 918.277 191.023 916.838 193.114C915.414 195.189 913.353 196.803 910.656 197.955C907.974 199.091 904.74 199.659 900.952 199.659C897.194 199.659 893.921 199.083 891.134 197.932C888.361 196.78 886.194 195.076 884.634 192.818C883.088 190.545 882.277 187.735 882.202 184.386H891.724C891.83 185.947 892.277 187.25 893.065 188.295C893.868 189.326 894.937 190.106 896.27 190.636C897.618 191.152 899.141 191.409 900.838 191.409C902.505 191.409 903.952 191.167 905.179 190.682C906.421 190.197 907.384 189.523 908.065 188.659C908.747 187.795 909.088 186.803 909.088 185.682C909.088 184.636 908.777 183.758 908.156 183.045C907.55 182.333 906.656 181.727 905.474 181.227C904.308 180.727 902.876 180.273 901.179 179.864L896.111 178.591C892.187 177.636 889.088 176.144 886.815 174.114C884.543 172.083 883.414 169.348 883.429 165.909C883.414 163.091 884.164 160.629 885.679 158.523C887.209 156.417 889.308 154.773 891.974 153.591C894.641 152.409 897.671 151.818 901.065 151.818C904.52 151.818 907.535 152.409 910.111 153.591C912.702 154.773 914.717 156.417 916.156 158.523C917.596 160.629 918.338 163.068 918.384 165.841H908.952ZM944.026 164.091V171.364H923.003V164.091H944.026ZM927.776 155.727H937.457V188.273C937.457 189.167 937.594 189.864 937.866 190.364C938.139 190.848 938.518 191.189 939.003 191.386C939.503 191.583 940.079 191.682 940.73 191.682C941.185 191.682 941.639 191.644 942.094 191.568C942.548 191.477 942.897 191.409 943.139 191.364L944.662 198.568C944.177 198.72 943.495 198.894 942.616 199.091C941.738 199.303 940.67 199.432 939.412 199.477C937.079 199.568 935.033 199.258 933.276 198.545C931.533 197.833 930.177 196.727 929.207 195.227C928.238 193.727 927.76 191.833 927.776 189.545V155.727ZM960.287 199.659C958.06 199.659 956.075 199.273 954.332 198.5C952.59 197.712 951.211 196.553 950.196 195.023C949.196 193.477 948.696 191.553 948.696 189.25C948.696 187.311 949.052 185.682 949.764 184.364C950.476 183.045 951.446 181.985 952.673 181.182C953.901 180.379 955.295 179.773 956.855 179.364C958.431 178.955 960.082 178.667 961.81 178.5C963.84 178.288 965.476 178.091 966.719 177.909C967.961 177.712 968.863 177.424 969.423 177.045C969.984 176.667 970.264 176.106 970.264 175.364V175.227C970.264 173.788 969.81 172.674 968.901 171.886C968.007 171.098 966.734 170.705 965.082 170.705C963.34 170.705 961.954 171.091 960.923 171.864C959.893 172.621 959.211 173.576 958.878 174.727L949.923 174C950.378 171.879 951.272 170.045 952.605 168.5C953.938 166.939 955.658 165.742 957.764 164.909C959.885 164.061 962.34 163.636 965.128 163.636C967.067 163.636 968.923 163.864 970.696 164.318C972.484 164.773 974.067 165.477 975.446 166.432C976.84 167.386 977.938 168.614 978.741 170.114C979.545 171.598 979.946 173.379 979.946 175.455V199H970.764V194.159H970.491C969.931 195.25 969.181 196.212 968.241 197.045C967.302 197.864 966.173 198.508 964.855 198.977C963.537 199.432 962.014 199.659 960.287 199.659ZM963.06 192.977C964.484 192.977 965.741 192.697 966.832 192.136C967.923 191.561 968.779 190.788 969.401 189.818C970.022 188.848 970.332 187.75 970.332 186.523V182.818C970.029 183.015 969.613 183.197 969.082 183.364C968.567 183.515 967.984 183.659 967.332 183.795C966.681 183.917 966.029 184.03 965.378 184.136C964.726 184.227 964.135 184.311 963.605 184.386C962.469 184.553 961.476 184.818 960.628 185.182C959.779 185.545 959.12 186.038 958.651 186.659C958.181 187.265 957.946 188.023 957.946 188.932C957.946 190.25 958.423 191.258 959.378 191.955C960.348 192.636 961.575 192.977 963.06 192.977ZM987.457 199V164.091H996.844V170.182H997.207C997.844 168.015 998.912 166.379 1000.41 165.273C1001.91 164.152 1003.64 163.591 1005.59 163.591C1006.08 163.591 1006.6 163.621 1007.16 163.682C1007.72 163.742 1008.21 163.826 1008.64 163.932V172.523C1008.18 172.386 1007.56 172.265 1006.75 172.159C1005.95 172.053 1005.21 172 1004.55 172C1003.12 172 1001.85 172.311 1000.73 172.932C999.624 173.538 998.745 174.386 998.094 175.477C997.457 176.568 997.139 177.826 997.139 179.25V199H987.457ZM1033.96 164.091V171.364H1012.94V164.091H1033.96ZM1017.71 155.727H1027.39V188.273C1027.39 189.167 1027.53 189.864 1027.8 190.364C1028.08 190.848 1028.46 191.189 1028.94 191.386C1029.44 191.583 1030.02 191.682 1030.67 191.682C1031.12 191.682 1031.58 191.644 1032.03 191.568C1032.49 191.477 1032.83 191.409 1033.08 191.364L1034.6 198.568C1034.11 198.72 1033.43 198.894 1032.55 199.091C1031.68 199.303 1030.61 199.432 1029.35 199.477C1027.02 199.568 1024.97 199.258 1023.21 198.545C1021.47 197.833 1020.11 196.727 1019.14 195.227C1018.18 193.727 1017.7 191.833 1017.71 189.545V155.727ZM1055.8 199.682C1052.21 199.682 1049.12 198.955 1046.53 197.5C1043.96 196.03 1041.97 193.955 1040.58 191.273C1039.18 188.576 1038.49 185.386 1038.49 181.705C1038.49 178.114 1039.18 174.962 1040.58 172.25C1041.97 169.538 1043.93 167.424 1046.46 165.909C1049.01 164.394 1051.99 163.636 1055.42 163.636C1057.72 163.636 1059.86 164.008 1061.85 164.75C1063.85 165.477 1065.59 166.576 1067.08 168.045C1068.58 169.515 1069.74 171.364 1070.58 173.591C1071.41 175.803 1071.83 178.394 1071.83 181.364V184.023H1042.35V178.023H1062.71C1062.71 176.629 1062.41 175.394 1061.8 174.318C1061.2 173.242 1060.36 172.402 1059.28 171.795C1058.22 171.174 1056.99 170.864 1055.58 170.864C1054.11 170.864 1052.8 171.205 1051.67 171.886C1050.55 172.553 1049.67 173.455 1049.03 174.591C1048.39 175.712 1048.07 176.962 1048.05 178.341V184.045C1048.05 185.773 1048.37 187.265 1049.01 188.523C1049.66 189.78 1050.58 190.75 1051.76 191.432C1052.94 192.114 1054.34 192.455 1055.96 192.455C1057.04 192.455 1058.02 192.303 1058.92 192C1059.81 191.697 1060.58 191.242 1061.21 190.636C1061.85 190.03 1062.33 189.288 1062.67 188.409L1071.62 189C1071.17 191.152 1070.24 193.03 1068.83 194.636C1067.43 196.227 1065.63 197.47 1063.42 198.364C1061.22 199.242 1058.68 199.682 1055.8 199.682ZM1078.14 199V164.091H1087.53V170.182H1087.89C1088.53 168.015 1089.6 166.379 1091.1 165.273C1092.6 164.152 1094.33 163.591 1096.28 163.591C1096.77 163.591 1097.29 163.621 1097.85 163.682C1098.41 163.742 1098.9 163.826 1099.33 163.932V172.523C1098.87 172.386 1098.24 172.265 1097.44 172.159C1096.64 172.053 1095.9 172 1095.24 172C1093.81 172 1092.54 172.311 1091.42 172.932C1090.31 173.538 1089.43 174.386 1088.78 175.477C1088.14 176.568 1087.83 177.826 1087.83 179.25V199H1078.14ZM1119.33 199V152.455H1129.17V172.977H1129.78L1146.53 152.455H1158.33L1141.05 173.295L1158.53 199H1146.76L1134.01 179.864L1129.17 185.773V199H1119.33ZM1165.46 199V164.091H1175.14V199H1165.46ZM1170.32 159.591C1168.88 159.591 1167.65 159.114 1166.62 158.159C1165.6 157.189 1165.09 156.03 1165.09 154.682C1165.09 153.348 1165.6 152.205 1166.62 151.25C1167.65 150.28 1168.88 149.795 1170.32 149.795C1171.76 149.795 1172.99 150.28 1174 151.25C1175.03 152.205 1175.55 153.348 1175.55 154.682C1175.55 156.03 1175.03 157.189 1174 158.159C1172.99 159.114 1171.76 159.591 1170.32 159.591ZM1201.46 164.091V171.364H1180.44V164.091H1201.46ZM1185.21 155.727H1194.89V188.273C1194.89 189.167 1195.03 189.864 1195.3 190.364C1195.58 190.848 1195.96 191.189 1196.44 191.386C1196.94 191.583 1197.52 191.682 1198.17 191.682C1198.62 191.682 1199.08 191.644 1199.53 191.568C1199.99 191.477 1200.33 191.409 1200.58 191.364L1202.1 198.568C1201.61 198.72 1200.93 198.894 1200.05 199.091C1199.18 199.303 1198.11 199.432 1196.85 199.477C1194.52 199.568 1192.47 199.258 1190.71 198.545C1188.97 197.833 1187.61 196.727 1186.64 195.227C1185.68 193.727 1185.2 191.833 1185.21 189.545V155.727Z"
      fill="white" />
    <g clip-path="url(#clip0_1_15)">
      <path
        d="M270.781 115.152C270.203 115.205 268.364 115.389 266.708 115.52C228.524 118.962 192.757 139.562 170.104 171.225C157.49 188.829 149.422 208.799 146.374 229.951C145.296 237.334 145.165 239.515 145.165 249.526C145.165 259.537 145.296 261.718 146.374 269.102C153.679 319.578 189.604 361.987 238.326 377.7C247.051 380.511 256.249 382.429 266.708 383.585C270.781 384.033 288.389 384.033 292.462 383.585C310.516 381.588 325.811 377.121 340.896 369.423C343.208 368.24 343.655 367.925 343.34 367.662C343.129 367.505 333.274 354.288 321.448 338.312L299.952 309.278L273.015 269.417C258.193 247.503 246 229.583 245.895 229.583C245.789 229.557 245.684 247.267 245.632 268.892C245.553 306.755 245.527 308.279 245.054 309.172C244.37 310.46 243.845 310.986 242.741 311.564C241.9 311.984 241.164 312.063 237.196 312.063H232.65L231.441 311.301C230.652 310.801 230.074 310.145 229.68 309.383L229.128 308.2L229.181 255.517L229.259 202.808L230.074 201.783C230.495 201.232 231.388 200.522 232.019 200.18C233.096 199.655 233.517 199.602 238.063 199.602C243.424 199.602 244.318 199.813 245.711 201.337C246.105 201.757 260.69 223.724 278.14 250.183C295.589 276.643 319.451 312.772 331.172 330.508L352.458 362.749L353.536 362.039C363.075 355.838 373.167 347.009 381.156 337.813C398.159 318.29 409.117 294.484 412.796 269.102C413.874 261.718 414.005 259.537 414.005 249.526C414.005 239.515 413.874 237.334 412.796 229.951C405.491 179.475 369.567 137.066 320.844 121.353C312.251 118.568 303.105 116.65 292.856 115.494C290.333 115.231 272.963 114.942 270.781 115.152ZM325.811 196.449C327.072 197.08 328.097 198.289 328.465 199.55C328.675 200.233 328.728 214.842 328.675 247.766L328.597 295.01L320.266 282.24L311.909 269.47V235.127C311.909 212.924 312.014 200.443 312.172 199.839C312.592 198.367 313.512 197.211 314.774 196.528C315.851 195.976 316.245 195.924 320.371 195.924C324.261 195.924 324.944 195.976 325.811 196.449Z"
        fill="white" />
    </g>
    <line x1="514" y1="120" x2="514" y2="379" stroke="white" stroke-width="10" stroke-linecap="round" />
    <path
      d="M609.948 278.131C609.858 277.324 609.483 276.699 608.823 276.256C608.164 275.807 607.335 275.582 606.335 275.582C605.619 275.582 605 275.696 604.477 275.923C603.954 276.145 603.548 276.452 603.258 276.844C602.974 277.23 602.832 277.67 602.832 278.165C602.832 278.58 602.929 278.937 603.122 279.239C603.321 279.54 603.579 279.793 603.897 279.997C604.221 280.196 604.568 280.364 604.937 280.5C605.306 280.631 605.661 280.739 606.002 280.824L607.707 281.267C608.264 281.403 608.835 281.588 609.42 281.821C610.005 282.054 610.548 282.361 611.048 282.741C611.548 283.122 611.951 283.594 612.258 284.156C612.571 284.719 612.727 285.392 612.727 286.176C612.727 287.165 612.471 288.043 611.96 288.81C611.454 289.577 610.718 290.182 609.752 290.625C608.792 291.068 607.63 291.29 606.267 291.29C604.96 291.29 603.829 291.082 602.875 290.668C601.92 290.253 601.173 289.665 600.633 288.903C600.093 288.136 599.795 287.227 599.738 286.176H602.38C602.431 286.807 602.636 287.332 602.994 287.753C603.358 288.168 603.821 288.477 604.383 288.682C604.951 288.881 605.573 288.98 606.25 288.98C606.994 288.98 607.656 288.864 608.235 288.631C608.821 288.392 609.281 288.062 609.616 287.642C609.951 287.216 610.119 286.719 610.119 286.151C610.119 285.634 609.971 285.21 609.676 284.881C609.386 284.551 608.991 284.278 608.491 284.062C607.997 283.847 607.437 283.656 606.812 283.491L604.75 282.929C603.352 282.548 602.244 281.989 601.426 281.25C600.613 280.511 600.207 279.534 600.207 278.318C600.207 277.312 600.48 276.435 601.025 275.685C601.571 274.935 602.309 274.352 603.241 273.938C604.173 273.517 605.224 273.307 606.394 273.307C607.576 273.307 608.619 273.514 609.522 273.929C610.431 274.344 611.147 274.915 611.67 275.642C612.193 276.364 612.465 277.193 612.488 278.131H609.948ZM622.599 291.29C621.769 291.29 621.019 291.136 620.349 290.83C619.679 290.517 619.147 290.065 618.755 289.474C618.369 288.884 618.176 288.159 618.176 287.301C618.176 286.562 618.318 285.955 618.602 285.477C618.886 285 619.269 284.622 619.752 284.344C620.235 284.065 620.775 283.855 621.372 283.713C621.968 283.571 622.576 283.463 623.196 283.389C623.98 283.298 624.616 283.224 625.105 283.168C625.593 283.105 625.948 283.006 626.17 282.869C626.392 282.733 626.502 282.511 626.502 282.205V282.145C626.502 281.401 626.292 280.824 625.872 280.415C625.457 280.006 624.838 279.801 624.014 279.801C623.156 279.801 622.48 279.991 621.985 280.372C621.497 280.747 621.159 281.165 620.971 281.625L618.576 281.08C618.86 280.284 619.275 279.642 619.821 279.153C620.372 278.659 621.005 278.301 621.721 278.08C622.437 277.852 623.19 277.739 623.98 277.739C624.502 277.739 625.056 277.801 625.642 277.926C626.232 278.045 626.784 278.267 627.295 278.591C627.812 278.915 628.235 279.378 628.565 279.98C628.894 280.577 629.059 281.352 629.059 282.307V291H626.571V289.21H626.468C626.304 289.54 626.056 289.864 625.727 290.182C625.397 290.5 624.974 290.764 624.457 290.974C623.94 291.185 623.321 291.29 622.599 291.29ZM623.153 289.244C623.857 289.244 624.46 289.105 624.96 288.827C625.465 288.548 625.849 288.185 626.11 287.736C626.377 287.281 626.511 286.795 626.511 286.278V284.591C626.42 284.682 626.244 284.767 625.982 284.847C625.727 284.92 625.434 284.986 625.105 285.043C624.775 285.094 624.454 285.142 624.142 285.188C623.829 285.227 623.568 285.261 623.357 285.29C622.863 285.352 622.411 285.457 622.002 285.605C621.599 285.753 621.275 285.966 621.031 286.244C620.792 286.517 620.673 286.881 620.673 287.335C620.673 287.966 620.906 288.443 621.372 288.767C621.838 289.085 622.431 289.244 623.153 289.244ZM641.803 277.909V279.955H634.406V277.909H641.803ZM636.434 291V276.392C636.434 275.574 636.613 274.895 636.971 274.355C637.329 273.81 637.803 273.403 638.394 273.136C638.985 272.864 639.627 272.727 640.321 272.727C640.832 272.727 641.269 272.77 641.633 272.855C641.997 272.935 642.267 273.009 642.443 273.077L641.846 275.139C641.727 275.105 641.573 275.065 641.386 275.02C641.198 274.969 640.971 274.943 640.704 274.943C640.085 274.943 639.642 275.097 639.375 275.403C639.113 275.71 638.982 276.153 638.982 276.733V291H636.434ZM652.679 291.264C651.389 291.264 650.279 290.989 649.347 290.438C648.421 289.881 647.705 289.099 647.199 288.094C646.699 287.082 646.449 285.898 646.449 284.54C646.449 283.199 646.699 282.017 647.199 280.994C647.705 279.972 648.409 279.173 649.313 278.599C650.222 278.026 651.284 277.739 652.5 277.739C653.239 277.739 653.955 277.861 654.648 278.105C655.341 278.349 655.963 278.733 656.514 279.256C657.066 279.778 657.5 280.457 657.818 281.293C658.137 282.122 658.296 283.131 658.296 284.318V285.222H647.889V283.312H655.798C655.798 282.642 655.662 282.048 655.389 281.531C655.117 281.009 654.733 280.597 654.239 280.295C653.75 279.994 653.176 279.844 652.517 279.844C651.801 279.844 651.176 280.02 650.642 280.372C650.114 280.719 649.705 281.173 649.415 281.736C649.131 282.293 648.989 282.898 648.989 283.551V285.043C648.989 285.918 649.142 286.662 649.449 287.276C649.762 287.889 650.196 288.358 650.753 288.682C651.31 289 651.96 289.159 652.705 289.159C653.188 289.159 653.628 289.091 654.026 288.955C654.423 288.812 654.767 288.602 655.057 288.324C655.347 288.045 655.568 287.702 655.722 287.293L658.134 287.727C657.941 288.437 657.594 289.06 657.094 289.594C656.6 290.122 655.977 290.534 655.227 290.83C654.483 291.119 653.634 291.264 652.679 291.264ZM678.615 291.256C677.558 291.256 676.615 290.986 675.786 290.446C674.962 289.901 674.314 289.125 673.842 288.119C673.377 287.108 673.144 285.895 673.144 284.48C673.144 283.065 673.379 281.855 673.851 280.849C674.328 279.844 674.982 279.074 675.811 278.54C676.641 278.006 677.581 277.739 678.632 277.739C679.445 277.739 680.098 277.875 680.592 278.148C681.092 278.415 681.479 278.727 681.752 279.085C682.03 279.443 682.246 279.759 682.399 280.031H682.553V273.545H685.101V291H682.612V288.963H682.399C682.246 289.241 682.024 289.56 681.735 289.918C681.45 290.276 681.058 290.588 680.558 290.855C680.058 291.122 679.411 291.256 678.615 291.256ZM679.178 289.082C679.911 289.082 680.53 288.889 681.036 288.503C681.547 288.111 681.933 287.568 682.195 286.875C682.462 286.182 682.595 285.375 682.595 284.455C682.595 283.545 682.465 282.75 682.203 282.068C681.942 281.386 681.558 280.855 681.053 280.474C680.547 280.094 679.922 279.903 679.178 279.903C678.411 279.903 677.771 280.102 677.26 280.5C676.749 280.898 676.362 281.44 676.101 282.128C675.845 282.815 675.717 283.591 675.717 284.455C675.717 285.33 675.848 286.116 676.11 286.815C676.371 287.514 676.757 288.068 677.269 288.477C677.786 288.881 678.422 289.082 679.178 289.082ZM697.5 291.264C696.21 291.264 695.1 290.989 694.168 290.438C693.242 289.881 692.526 289.099 692.02 288.094C691.52 287.082 691.27 285.898 691.27 284.54C691.27 283.199 691.52 282.017 692.02 280.994C692.526 279.972 693.23 279.173 694.134 278.599C695.043 278.026 696.105 277.739 697.321 277.739C698.06 277.739 698.776 277.861 699.469 278.105C700.162 278.349 700.784 278.733 701.335 279.256C701.886 279.778 702.321 280.457 702.639 281.293C702.957 282.122 703.117 283.131 703.117 284.318V285.222H692.71V283.312H700.619C700.619 282.642 700.483 282.048 700.21 281.531C699.938 281.009 699.554 280.597 699.06 280.295C698.571 279.994 697.997 279.844 697.338 279.844C696.622 279.844 695.997 280.02 695.463 280.372C694.935 280.719 694.526 281.173 694.236 281.736C693.952 282.293 693.81 282.898 693.81 283.551V285.043C693.81 285.918 693.963 286.662 694.27 287.276C694.582 287.889 695.017 288.358 695.574 288.682C696.131 289 696.781 289.159 697.526 289.159C698.009 289.159 698.449 289.091 698.847 288.955C699.244 288.812 699.588 288.602 699.878 288.324C700.168 288.045 700.389 287.702 700.543 287.293L702.955 287.727C702.761 288.437 702.415 289.06 701.915 289.594C701.421 290.122 700.798 290.534 700.048 290.83C699.304 291.119 698.455 291.264 697.5 291.264ZM719.888 277.909L715.141 291H712.413L707.658 277.909H710.394L713.709 287.983H713.845L717.152 277.909H719.888ZM730.599 291.264C729.31 291.264 728.199 290.989 727.267 290.438C726.341 289.881 725.625 289.099 725.119 288.094C724.619 287.082 724.369 285.898 724.369 284.54C724.369 283.199 724.619 282.017 725.119 280.994C725.625 279.972 726.33 279.173 727.233 278.599C728.142 278.026 729.205 277.739 730.42 277.739C731.159 277.739 731.875 277.861 732.568 278.105C733.261 278.349 733.884 278.733 734.435 279.256C734.986 279.778 735.42 280.457 735.739 281.293C736.057 282.122 736.216 283.131 736.216 284.318V285.222H725.81V283.312H733.719C733.719 282.642 733.582 282.048 733.31 281.531C733.037 281.009 732.653 280.597 732.159 280.295C731.67 279.994 731.097 279.844 730.438 279.844C729.722 279.844 729.097 280.02 728.563 280.372C728.034 280.719 727.625 281.173 727.335 281.736C727.051 282.293 726.909 282.898 726.909 283.551V285.043C726.909 285.918 727.063 286.662 727.369 287.276C727.682 287.889 728.117 288.358 728.673 288.682C729.23 289 729.881 289.159 730.625 289.159C731.108 289.159 731.548 289.091 731.946 288.955C732.344 288.812 732.688 288.602 732.977 288.324C733.267 288.045 733.489 287.702 733.642 287.293L736.054 287.727C735.861 288.437 735.514 289.06 735.014 289.594C734.52 290.122 733.898 290.534 733.148 290.83C732.403 291.119 731.554 291.264 730.599 291.264ZM744.712 273.545V291H742.163V273.545H744.712ZM756.774 291.264C755.547 291.264 754.476 290.983 753.561 290.42C752.646 289.858 751.936 289.071 751.43 288.06C750.925 287.048 750.672 285.866 750.672 284.514C750.672 283.156 750.925 281.969 751.43 280.952C751.936 279.935 752.646 279.145 753.561 278.582C754.476 278.02 755.547 277.739 756.774 277.739C758.001 277.739 759.072 278.02 759.987 278.582C760.902 279.145 761.612 279.935 762.118 280.952C762.624 281.969 762.876 283.156 762.876 284.514C762.876 285.866 762.624 287.048 762.118 288.06C761.612 289.071 760.902 289.858 759.987 290.42C759.072 290.983 758.001 291.264 756.774 291.264ZM756.783 289.125C757.578 289.125 758.237 288.915 758.76 288.494C759.283 288.074 759.669 287.514 759.919 286.815C760.175 286.116 760.303 285.347 760.303 284.506C760.303 283.67 760.175 282.903 759.919 282.205C759.669 281.5 759.283 280.935 758.76 280.509C758.237 280.082 757.578 279.869 756.783 279.869C755.982 279.869 755.317 280.082 754.788 280.509C754.266 280.935 753.876 281.5 753.621 282.205C753.371 282.903 753.246 283.67 753.246 284.506C753.246 285.347 753.371 286.116 753.621 286.815C753.876 287.514 754.266 288.074 754.788 288.494C755.317 288.915 755.982 289.125 756.783 289.125ZM768.841 295.909V277.909H771.329V280.031H771.543C771.69 279.759 771.903 279.443 772.182 279.085C772.46 278.727 772.847 278.415 773.341 278.148C773.835 277.875 774.489 277.739 775.301 277.739C776.358 277.739 777.301 278.006 778.131 278.54C778.96 279.074 779.611 279.844 780.082 280.849C780.56 281.855 780.798 283.065 780.798 284.48C780.798 285.895 780.562 287.108 780.091 288.119C779.619 289.125 778.972 289.901 778.148 290.446C777.324 290.986 776.383 291.256 775.327 291.256C774.531 291.256 773.881 291.122 773.375 290.855C772.875 290.588 772.483 290.276 772.199 289.918C771.915 289.56 771.696 289.241 771.543 288.963H771.389V295.909H768.841ZM771.338 284.455C771.338 285.375 771.472 286.182 771.739 286.875C772.006 287.568 772.392 288.111 772.898 288.503C773.403 288.889 774.023 289.082 774.756 289.082C775.517 289.082 776.153 288.881 776.665 288.477C777.176 288.068 777.562 287.514 777.824 286.815C778.091 286.116 778.224 285.33 778.224 284.455C778.224 283.591 778.094 282.815 777.832 282.128C777.577 281.44 777.19 280.898 776.673 280.5C776.162 280.102 775.523 279.903 774.756 279.903C774.017 279.903 773.392 280.094 772.881 280.474C772.375 280.855 771.991 281.386 771.73 282.068C771.469 282.75 771.338 283.545 771.338 284.455ZM792.415 291.264C791.126 291.264 790.015 290.989 789.083 290.438C788.157 289.881 787.441 289.099 786.935 288.094C786.435 287.082 786.185 285.898 786.185 284.54C786.185 283.199 786.435 282.017 786.935 280.994C787.441 279.972 788.146 279.173 789.049 278.599C789.958 278.026 791.021 277.739 792.236 277.739C792.975 277.739 793.691 277.861 794.384 278.105C795.077 278.349 795.7 278.733 796.251 279.256C796.802 279.778 797.236 280.457 797.555 281.293C797.873 282.122 798.032 283.131 798.032 284.318V285.222H787.626V283.312H795.535C795.535 282.642 795.398 282.048 795.126 281.531C794.853 281.009 794.469 280.597 793.975 280.295C793.486 279.994 792.913 279.844 792.253 279.844C791.538 279.844 790.913 280.02 790.378 280.372C789.85 280.719 789.441 281.173 789.151 281.736C788.867 282.293 788.725 282.898 788.725 283.551V285.043C788.725 285.918 788.878 286.662 789.185 287.276C789.498 287.889 789.932 288.358 790.489 288.682C791.046 289 791.697 289.159 792.441 289.159C792.924 289.159 793.364 289.091 793.762 288.955C794.16 288.812 794.503 288.602 794.793 288.324C795.083 288.045 795.305 287.702 795.458 287.293L797.87 287.727C797.677 288.437 797.33 289.06 796.83 289.594C796.336 290.122 795.714 290.534 794.964 290.83C794.219 291.119 793.37 291.264 792.415 291.264ZM803.979 291V277.909H806.442V279.989H806.579C806.817 279.284 807.238 278.73 807.84 278.327C808.448 277.918 809.136 277.713 809.903 277.713C810.062 277.713 810.249 277.719 810.465 277.73C810.687 277.741 810.86 277.756 810.985 277.773V280.21C810.883 280.182 810.701 280.151 810.44 280.116C810.178 280.077 809.917 280.057 809.655 280.057C809.053 280.057 808.516 280.185 808.045 280.44C807.579 280.69 807.209 281.04 806.937 281.489C806.664 281.932 806.528 282.437 806.528 283.006V291H803.979ZM831.893 277.909V279.955H824.742V277.909H831.893ZM826.66 274.773H829.208V287.156C829.208 287.651 829.282 288.023 829.43 288.273C829.577 288.517 829.768 288.685 830.001 288.776C830.239 288.861 830.498 288.903 830.776 288.903C830.981 288.903 831.16 288.889 831.313 288.861C831.466 288.832 831.586 288.81 831.671 288.793L832.131 290.898C831.984 290.955 831.773 291.011 831.501 291.068C831.228 291.131 830.887 291.165 830.478 291.17C829.807 291.182 829.182 291.062 828.603 290.812C828.023 290.562 827.555 290.176 827.197 289.653C826.839 289.131 826.66 288.474 826.66 287.685V274.773ZM837.831 291V277.909H840.38V291H837.831ZM839.118 275.889C838.675 275.889 838.295 275.741 837.976 275.446C837.664 275.145 837.508 274.787 837.508 274.372C837.508 273.952 837.664 273.594 837.976 273.298C838.295 272.997 838.675 272.847 839.118 272.847C839.562 272.847 839.939 272.997 840.252 273.298C840.57 273.594 840.729 273.952 840.729 274.372C840.729 274.787 840.57 275.145 840.252 275.446C839.939 275.741 839.562 275.889 839.118 275.889ZM846.928 291V277.909H849.374V280.04H849.536C849.809 279.318 850.255 278.756 850.874 278.352C851.493 277.943 852.235 277.739 853.098 277.739C853.973 277.739 854.706 277.943 855.297 278.352C855.894 278.761 856.334 279.324 856.618 280.04H856.755C857.067 279.341 857.564 278.784 858.246 278.369C858.928 277.949 859.741 277.739 860.684 277.739C861.871 277.739 862.84 278.111 863.59 278.855C864.346 279.599 864.723 280.722 864.723 282.222V291H862.175V282.46C862.175 281.574 861.934 280.932 861.451 280.534C860.968 280.136 860.391 279.938 859.721 279.938C858.891 279.938 858.246 280.193 857.786 280.705C857.326 281.21 857.096 281.861 857.096 282.656V291H854.556V282.298C854.556 281.588 854.334 281.017 853.891 280.585C853.448 280.153 852.871 279.938 852.161 279.938C851.678 279.938 851.232 280.065 850.823 280.321C850.42 280.571 850.093 280.92 849.843 281.369C849.598 281.818 849.476 282.338 849.476 282.929V291H846.928ZM876.901 291.264C875.611 291.264 874.5 290.989 873.569 290.438C872.643 289.881 871.927 289.099 871.421 288.094C870.921 287.082 870.671 285.898 870.671 284.54C870.671 283.199 870.921 282.017 871.421 280.994C871.927 279.972 872.631 279.173 873.535 278.599C874.444 278.026 875.506 277.739 876.722 277.739C877.461 277.739 878.177 277.861 878.87 278.105C879.563 278.349 880.185 278.733 880.736 279.256C881.287 279.778 881.722 280.457 882.04 281.293C882.358 282.122 882.518 283.131 882.518 284.318V285.222H872.111V283.312H880.02C880.02 282.642 879.884 282.048 879.611 281.531C879.339 281.009 878.955 280.597 878.461 280.295C877.972 279.994 877.398 279.844 876.739 279.844C876.023 279.844 875.398 280.02 874.864 280.372C874.336 280.719 873.927 281.173 873.637 281.736C873.353 282.293 873.211 282.898 873.211 283.551V285.043C873.211 285.918 873.364 286.662 873.671 287.276C873.983 287.889 874.418 288.358 874.975 288.682C875.532 289 876.182 289.159 876.927 289.159C877.41 289.159 877.85 289.091 878.248 288.955C878.645 288.812 878.989 288.602 879.279 288.324C879.569 288.045 879.79 287.702 879.944 287.293L882.356 287.727C882.162 288.437 881.816 289.06 881.316 289.594C880.821 290.122 880.199 290.534 879.449 290.83C878.705 291.119 877.856 291.264 876.901 291.264ZM904.047 277.909V279.955H896.897V277.909H904.047ZM898.814 274.773H901.363V287.156C901.363 287.651 901.436 288.023 901.584 288.273C901.732 288.517 901.922 288.685 902.155 288.776C902.394 288.861 902.652 288.903 902.931 288.903C903.135 288.903 903.314 288.889 903.468 288.861C903.621 288.832 903.74 288.81 903.826 288.793L904.286 290.898C904.138 290.955 903.928 291.011 903.655 291.068C903.383 291.131 903.042 291.165 902.633 291.17C901.962 291.182 901.337 291.062 900.758 290.812C900.178 290.562 899.709 290.176 899.351 289.653C898.993 289.131 898.814 288.474 898.814 287.685V274.773ZM915.36 291.264C914.132 291.264 913.061 290.983 912.147 290.42C911.232 289.858 910.522 289.071 910.016 288.06C909.51 287.048 909.257 285.866 909.257 284.514C909.257 283.156 909.51 281.969 910.016 280.952C910.522 279.935 911.232 279.145 912.147 278.582C913.061 278.02 914.132 277.739 915.36 277.739C916.587 277.739 917.658 278.02 918.573 278.582C919.488 279.145 920.198 279.935 920.703 280.952C921.209 281.969 921.462 283.156 921.462 284.514C921.462 285.866 921.209 287.048 920.703 288.06C920.198 289.071 919.488 289.858 918.573 290.42C917.658 290.983 916.587 291.264 915.36 291.264ZM915.368 289.125C916.164 289.125 916.823 288.915 917.346 288.494C917.868 288.074 918.255 287.514 918.505 286.815C918.76 286.116 918.888 285.347 918.888 284.506C918.888 283.67 918.76 282.903 918.505 282.205C918.255 281.5 917.868 280.935 917.346 280.509C916.823 280.082 916.164 279.869 915.368 279.869C914.567 279.869 913.902 280.082 913.374 280.509C912.851 280.935 912.462 281.5 912.206 282.205C911.956 282.903 911.831 283.67 911.831 284.506C911.831 285.347 911.956 286.116 912.206 286.815C912.462 287.514 912.851 288.074 913.374 288.494C913.902 288.915 914.567 289.125 915.368 289.125ZM936.898 291V277.909H939.446V291H936.898ZM938.185 275.889C937.742 275.889 937.361 275.741 937.043 275.446C936.73 275.145 936.574 274.787 936.574 274.372C936.574 273.952 936.73 273.594 937.043 273.298C937.361 272.997 937.742 272.847 938.185 272.847C938.628 272.847 939.006 272.997 939.319 273.298C939.637 273.594 939.796 273.952 939.796 274.372C939.796 274.787 939.637 275.145 939.319 275.446C939.006 275.741 938.628 275.889 938.185 275.889ZM948.543 283.227V291H945.995V277.909H948.441V280.04H948.603C948.904 279.347 949.375 278.79 950.017 278.369C950.665 277.949 951.48 277.739 952.463 277.739C953.355 277.739 954.137 277.926 954.807 278.301C955.478 278.67 955.997 279.222 956.367 279.955C956.736 280.687 956.921 281.594 956.921 282.673V291H954.372V282.98C954.372 282.031 954.125 281.29 953.631 280.756C953.137 280.216 952.458 279.946 951.594 279.946C951.003 279.946 950.478 280.074 950.017 280.33C949.563 280.585 949.202 280.96 948.935 281.455C948.674 281.943 948.543 282.534 948.543 283.227ZM963.458 291V277.909H966.007V291H963.458ZM964.745 275.889C964.302 275.889 963.921 275.741 963.603 275.446C963.291 275.145 963.135 274.787 963.135 274.372C963.135 273.952 963.291 273.594 963.603 273.298C963.921 272.997 964.302 272.847 964.745 272.847C965.188 272.847 965.566 272.997 965.879 273.298C966.197 273.594 966.356 273.952 966.356 274.372C966.356 274.787 966.197 275.145 965.879 275.446C965.566 275.741 965.188 275.889 964.745 275.889ZM978.666 277.909V279.955H971.515V277.909H978.666ZM973.433 274.773H975.981V287.156C975.981 287.651 976.055 288.023 976.203 288.273C976.35 288.517 976.541 288.685 976.774 288.776C977.012 288.861 977.271 288.903 977.549 288.903C977.754 288.903 977.933 288.889 978.086 288.861C978.24 288.832 978.359 288.81 978.444 288.793L978.904 290.898C978.757 290.955 978.546 291.011 978.274 291.068C978.001 291.131 977.66 291.165 977.251 291.17C976.58 291.182 975.955 291.062 975.376 290.812C974.796 290.562 974.328 290.176 973.97 289.653C973.612 289.131 973.433 288.474 973.433 287.685V274.773ZM994.076 295.909V277.909H996.565V280.031H996.778C996.926 279.759 997.139 279.443 997.417 279.085C997.695 278.727 998.082 278.415 998.576 278.148C999.07 277.875 999.724 277.739 1000.54 277.739C1001.59 277.739 1002.54 278.006 1003.37 278.54C1004.2 279.074 1004.85 279.844 1005.32 280.849C1005.79 281.855 1006.03 283.065 1006.03 284.48C1006.03 285.895 1005.8 287.108 1005.33 288.119C1004.85 289.125 1004.21 289.901 1003.38 290.446C1002.56 290.986 1001.62 291.256 1000.56 291.256C999.767 291.256 999.116 291.122 998.61 290.855C998.11 290.588 997.718 290.276 997.434 289.918C997.15 289.56 996.931 289.241 996.778 288.963H996.624V295.909H994.076ZM996.573 284.455C996.573 285.375 996.707 286.182 996.974 286.875C997.241 287.568 997.627 288.111 998.133 288.503C998.639 288.889 999.258 289.082 999.991 289.082C1000.75 289.082 1001.39 288.881 1001.9 288.477C1002.41 288.068 1002.8 287.514 1003.06 286.815C1003.33 286.116 1003.46 285.33 1003.46 284.455C1003.46 283.591 1003.33 282.815 1003.07 282.128C1002.81 281.44 1002.43 280.898 1001.91 280.5C1001.4 280.102 1000.76 279.903 999.991 279.903C999.252 279.903 998.627 280.094 998.116 280.474C997.61 280.855 997.227 281.386 996.965 282.068C996.704 282.75 996.573 283.545 996.573 284.455ZM1012.01 291V277.909H1014.47V279.989H1014.61C1014.85 279.284 1015.27 278.73 1015.87 278.327C1016.48 277.918 1017.16 277.713 1017.93 277.713C1018.09 277.713 1018.28 277.719 1018.49 277.73C1018.72 277.741 1018.89 277.756 1019.01 277.773V280.21C1018.91 280.182 1018.73 280.151 1018.47 280.116C1018.21 280.077 1017.95 280.057 1017.68 280.057C1017.08 280.057 1016.55 280.185 1016.07 280.44C1015.61 280.69 1015.24 281.04 1014.97 281.489C1014.69 281.932 1014.56 282.437 1014.56 283.006V291H1012.01ZM1029.39 291.264C1028.16 291.264 1027.09 290.983 1026.17 290.42C1025.26 289.858 1024.55 289.071 1024.04 288.06C1023.54 287.048 1023.28 285.866 1023.28 284.514C1023.28 283.156 1023.54 281.969 1024.04 280.952C1024.55 279.935 1025.26 279.145 1026.17 278.582C1027.09 278.02 1028.16 277.739 1029.39 277.739C1030.61 277.739 1031.68 278.02 1032.6 278.582C1033.51 279.145 1034.22 279.935 1034.73 280.952C1035.23 281.969 1035.49 283.156 1035.49 284.514C1035.49 285.866 1035.23 287.048 1034.73 288.06C1034.22 289.071 1033.51 289.858 1032.6 290.42C1031.68 290.983 1030.61 291.264 1029.39 291.264ZM1029.39 289.125C1030.19 289.125 1030.85 288.915 1031.37 288.494C1031.89 288.074 1032.28 287.514 1032.53 286.815C1032.79 286.116 1032.91 285.347 1032.91 284.506C1032.91 283.67 1032.79 282.903 1032.53 282.205C1032.28 281.5 1031.89 280.935 1031.37 280.509C1030.85 280.082 1030.19 279.869 1029.39 279.869C1028.59 279.869 1027.93 280.082 1027.4 280.509C1026.88 280.935 1026.49 281.5 1026.23 282.205C1025.98 282.903 1025.86 283.67 1025.86 284.506C1025.86 285.347 1025.98 286.116 1026.23 286.815C1026.49 287.514 1026.88 288.074 1027.4 288.494C1027.93 288.915 1028.59 289.125 1029.39 289.125ZM1041.45 277.909H1044V291.852C1044 292.727 1043.84 293.466 1043.52 294.068C1043.21 294.67 1042.74 295.128 1042.13 295.44C1041.51 295.753 1040.75 295.909 1039.85 295.909C1039.76 295.909 1039.67 295.909 1039.59 295.909C1039.51 295.909 1039.42 295.906 1039.33 295.901V293.71C1039.41 293.71 1039.48 293.71 1039.54 293.71C1039.6 293.71 1039.66 293.71 1039.74 293.71C1040.34 293.71 1040.78 293.548 1041.04 293.224C1041.32 292.906 1041.45 292.443 1041.45 291.835V277.909ZM1042.71 275.889C1042.27 275.889 1041.89 275.741 1041.57 275.446C1041.26 275.145 1041.1 274.787 1041.1 274.372C1041.1 273.952 1041.26 273.594 1041.57 273.298C1041.89 272.997 1042.27 272.847 1042.71 272.847C1043.16 272.847 1043.53 272.997 1043.85 273.298C1044.16 273.594 1044.32 273.952 1044.32 274.372C1044.32 274.787 1044.16 275.145 1043.85 275.446C1043.53 275.741 1043.16 275.889 1042.71 275.889ZM1056.19 291.264C1054.9 291.264 1053.79 290.989 1052.86 290.438C1051.93 289.881 1051.22 289.099 1050.71 288.094C1050.21 287.082 1049.96 285.898 1049.96 284.54C1049.96 283.199 1050.21 282.017 1050.71 280.994C1051.22 279.972 1051.92 279.173 1052.82 278.599C1053.73 278.026 1054.8 277.739 1056.01 277.739C1056.75 277.739 1057.47 277.861 1058.16 278.105C1058.85 278.349 1059.47 278.733 1060.03 279.256C1060.58 279.778 1061.01 280.457 1061.33 281.293C1061.65 282.122 1061.81 283.131 1061.81 284.318V285.222H1051.4V283.312H1059.31C1059.31 282.642 1059.17 282.048 1058.9 281.531C1058.63 281.009 1058.24 280.597 1057.75 280.295C1057.26 279.994 1056.69 279.844 1056.03 279.844C1055.31 279.844 1054.69 280.02 1054.15 280.372C1053.63 280.719 1053.22 281.173 1052.93 281.736C1052.64 282.293 1052.5 282.898 1052.5 283.551V285.043C1052.5 285.918 1052.65 286.662 1052.96 287.276C1053.27 287.889 1053.71 288.358 1054.26 288.682C1054.82 289 1055.47 289.159 1056.22 289.159C1056.7 289.159 1057.14 289.091 1057.54 288.955C1057.93 288.812 1058.28 288.602 1058.57 288.324C1058.86 288.045 1059.08 287.702 1059.23 287.293L1061.64 287.727C1061.45 288.437 1061.11 289.06 1060.61 289.594C1060.11 290.122 1059.49 290.534 1058.74 290.83C1057.99 291.119 1057.14 291.264 1056.19 291.264ZM1073.27 291.264C1072 291.264 1070.91 290.977 1070 290.403C1069.09 289.824 1068.39 289.026 1067.9 288.009C1067.41 286.991 1067.17 285.827 1067.17 284.514C1067.17 283.185 1067.42 282.011 1067.92 280.994C1068.42 279.972 1069.12 279.173 1070.03 278.599C1070.94 278.026 1072.01 277.739 1073.24 277.739C1074.24 277.739 1075.12 277.923 1075.9 278.293C1076.68 278.656 1077.31 279.168 1077.79 279.827C1078.27 280.486 1078.56 281.256 1078.65 282.136H1076.17C1076.03 281.523 1075.72 280.994 1075.23 280.551C1074.75 280.108 1074.1 279.886 1073.29 279.886C1072.58 279.886 1071.95 280.074 1071.42 280.449C1070.89 280.818 1070.48 281.347 1070.18 282.034C1069.89 282.716 1069.74 283.523 1069.74 284.455C1069.74 285.409 1069.88 286.233 1070.17 286.926C1070.46 287.619 1070.87 288.156 1071.4 288.537C1071.94 288.918 1072.56 289.108 1073.29 289.108C1073.77 289.108 1074.21 289.02 1074.6 288.844C1075 288.662 1075.33 288.403 1075.6 288.068C1075.87 287.733 1076.06 287.33 1076.17 286.858H1078.65C1078.56 287.705 1078.28 288.46 1077.82 289.125C1077.36 289.79 1076.74 290.312 1075.97 290.693C1075.2 291.074 1074.3 291.264 1073.27 291.264ZM1090.6 277.909V279.955H1083.45V277.909H1090.6ZM1085.37 274.773H1087.92V287.156C1087.92 287.651 1087.99 288.023 1088.14 288.273C1088.29 288.517 1088.48 288.685 1088.71 288.776C1088.95 288.861 1089.21 288.903 1089.49 288.903C1089.69 288.903 1089.87 288.889 1090.02 288.861C1090.18 288.832 1090.3 288.81 1090.38 288.793L1090.84 290.898C1090.69 290.955 1090.48 291.011 1090.21 291.068C1089.94 291.131 1089.6 291.165 1089.19 291.17C1088.52 291.182 1087.89 291.062 1087.31 290.812C1086.73 290.562 1086.26 290.176 1085.91 289.653C1085.55 289.131 1085.37 288.474 1085.37 287.685V274.773ZM1115.82 281.105L1113.51 281.514C1113.42 281.219 1113.26 280.937 1113.05 280.67C1112.85 280.403 1112.57 280.185 1112.22 280.014C1111.87 279.844 1111.42 279.759 1110.9 279.759C1110.17 279.759 1109.57 279.92 1109.09 280.244C1108.61 280.562 1108.37 280.974 1108.37 281.48C1108.37 281.918 1108.53 282.27 1108.85 282.537C1109.17 282.804 1109.7 283.023 1110.42 283.193L1112.5 283.67C1113.7 283.949 1114.6 284.378 1115.19 284.957C1115.78 285.537 1116.08 286.29 1116.08 287.216C1116.08 288 1115.85 288.699 1115.4 289.312C1114.95 289.92 1114.32 290.398 1113.51 290.744C1112.71 291.091 1111.78 291.264 1110.73 291.264C1109.26 291.264 1108.06 290.952 1107.14 290.327C1106.21 289.696 1105.64 288.801 1105.43 287.642L1107.9 287.267C1108.05 287.909 1108.37 288.395 1108.84 288.724C1109.32 289.048 1109.94 289.21 1110.71 289.21C1111.54 289.21 1112.21 289.037 1112.71 288.69C1113.21 288.338 1113.46 287.909 1113.46 287.403C1113.46 286.994 1113.31 286.651 1113 286.372C1112.7 286.094 1112.24 285.884 1111.61 285.741L1109.4 285.256C1108.17 284.977 1107.27 284.534 1106.69 283.926C1106.11 283.318 1105.82 282.548 1105.82 281.616C1105.82 280.844 1106.03 280.168 1106.46 279.588C1106.9 279.009 1107.49 278.557 1108.25 278.233C1109.02 277.903 1109.89 277.739 1110.87 277.739C1112.29 277.739 1113.4 278.045 1114.21 278.659C1115.02 279.267 1115.56 280.082 1115.82 281.105ZM1130.29 285.571V277.909H1132.85V291H1130.34V288.733H1130.21C1129.91 289.432 1129.42 290.014 1128.76 290.48C1128.1 290.94 1127.28 291.17 1126.3 291.17C1125.45 291.17 1124.71 290.986 1124.06 290.616C1123.42 290.241 1122.91 289.688 1122.55 288.955C1122.18 288.222 1122 287.315 1122 286.236V277.909H1124.55V285.929C1124.55 286.821 1124.8 287.531 1125.29 288.06C1125.78 288.588 1126.43 288.852 1127.22 288.852C1127.69 288.852 1128.17 288.733 1128.64 288.494C1129.12 288.256 1129.51 287.895 1129.82 287.412C1130.14 286.929 1130.3 286.315 1130.29 285.571ZM1139.39 295.909V277.909H1141.88V280.031H1142.1C1142.24 279.759 1142.46 279.443 1142.73 279.085C1143.01 278.727 1143.4 278.415 1143.89 278.148C1144.39 277.875 1145.04 277.739 1145.85 277.739C1146.91 277.739 1147.85 278.006 1148.68 278.54C1149.51 279.074 1150.16 279.844 1150.63 280.849C1151.11 281.855 1151.35 283.065 1151.35 284.48C1151.35 285.895 1151.11 287.108 1150.64 288.119C1150.17 289.125 1149.52 289.901 1148.7 290.446C1147.88 290.986 1146.94 291.256 1145.88 291.256C1145.08 291.256 1144.43 291.122 1143.93 290.855C1143.43 290.588 1143.04 290.276 1142.75 289.918C1142.47 289.56 1142.25 289.241 1142.1 288.963H1141.94V295.909H1139.39ZM1141.89 284.455C1141.89 285.375 1142.02 286.182 1142.29 286.875C1142.56 287.568 1142.94 288.111 1143.45 288.503C1143.96 288.889 1144.58 289.082 1145.31 289.082C1146.07 289.082 1146.71 288.881 1147.22 288.477C1147.73 288.068 1148.11 287.514 1148.38 286.815C1148.64 286.116 1148.78 285.33 1148.78 284.455C1148.78 283.591 1148.65 282.815 1148.38 282.128C1148.13 281.44 1147.74 280.898 1147.23 280.5C1146.71 280.102 1146.08 279.903 1145.31 279.903C1144.57 279.903 1143.94 280.094 1143.43 280.474C1142.93 280.855 1142.54 281.386 1142.28 282.068C1142.02 282.75 1141.89 283.545 1141.89 284.455ZM1157.33 295.909V277.909H1159.81V280.031H1160.03C1160.18 279.759 1160.39 279.443 1160.67 279.085C1160.95 278.727 1161.33 278.415 1161.83 278.148C1162.32 277.875 1162.97 277.739 1163.79 277.739C1164.84 277.739 1165.79 278.006 1166.62 278.54C1167.45 279.074 1168.1 279.844 1168.57 280.849C1169.04 281.855 1169.28 283.065 1169.28 284.48C1169.28 285.895 1169.05 287.108 1168.58 288.119C1168.1 289.125 1167.46 289.901 1166.63 290.446C1165.81 290.986 1164.87 291.256 1163.81 291.256C1163.02 291.256 1162.37 291.122 1161.86 290.855C1161.36 290.588 1160.97 290.276 1160.68 289.918C1160.4 289.56 1160.18 289.241 1160.03 288.963H1159.87V295.909H1157.33ZM1159.82 284.455C1159.82 285.375 1159.96 286.182 1160.22 286.875C1160.49 287.568 1160.88 288.111 1161.38 288.503C1161.89 288.889 1162.51 289.082 1163.24 289.082C1164 289.082 1164.64 288.881 1165.15 288.477C1165.66 288.068 1166.05 287.514 1166.31 286.815C1166.58 286.116 1166.71 285.33 1166.71 284.455C1166.71 283.591 1166.58 282.815 1166.32 282.128C1166.06 281.44 1165.68 280.898 1165.16 280.5C1164.65 280.102 1164.01 279.903 1163.24 279.903C1162.5 279.903 1161.88 280.094 1161.37 280.474C1160.86 280.855 1160.48 281.386 1160.22 282.068C1159.95 282.75 1159.82 283.545 1159.82 284.455ZM1180.77 291.264C1179.55 291.264 1178.47 290.983 1177.56 290.42C1176.64 289.858 1175.93 289.071 1175.43 288.06C1174.92 287.048 1174.67 285.866 1174.67 284.514C1174.67 283.156 1174.92 281.969 1175.43 280.952C1175.93 279.935 1176.64 279.145 1177.56 278.582C1178.47 278.02 1179.55 277.739 1180.77 277.739C1182 277.739 1183.07 278.02 1183.99 278.582C1184.9 279.145 1185.61 279.935 1186.12 280.952C1186.62 281.969 1186.87 283.156 1186.87 284.514C1186.87 285.866 1186.62 287.048 1186.12 288.06C1185.61 289.071 1184.9 289.858 1183.99 290.42C1183.07 290.983 1182 291.264 1180.77 291.264ZM1180.78 289.125C1181.58 289.125 1182.24 288.915 1182.76 288.494C1183.28 288.074 1183.67 287.514 1183.92 286.815C1184.17 286.116 1184.3 285.347 1184.3 284.506C1184.3 283.67 1184.17 282.903 1183.92 282.205C1183.67 281.5 1183.28 280.935 1182.76 280.509C1182.24 280.082 1181.58 279.869 1180.78 279.869C1179.98 279.869 1179.32 280.082 1178.79 280.509C1178.26 280.935 1177.87 281.5 1177.62 282.205C1177.37 282.903 1177.24 283.67 1177.24 284.506C1177.24 285.347 1177.37 286.116 1177.62 286.815C1177.87 287.514 1178.26 288.074 1178.79 288.494C1179.32 288.915 1179.98 289.125 1180.78 289.125ZM1192.84 291V277.909H1195.3V279.989H1195.44C1195.68 279.284 1196.1 278.73 1196.7 278.327C1197.31 277.918 1198 277.713 1198.76 277.713C1198.92 277.713 1199.11 277.719 1199.33 277.73C1199.55 277.741 1199.72 277.756 1199.84 277.773V280.21C1199.74 280.182 1199.56 280.151 1199.3 280.116C1199.04 280.077 1198.78 280.057 1198.52 280.057C1197.91 280.057 1197.38 280.185 1196.9 280.44C1196.44 280.69 1196.07 281.04 1195.8 281.489C1195.52 281.932 1195.39 282.437 1195.39 283.006V291H1192.84ZM1212.05 277.909V279.955H1204.9V277.909H1212.05ZM1206.82 274.773H1209.37V287.156C1209.37 287.651 1209.44 288.023 1209.59 288.273C1209.74 288.517 1209.93 288.685 1210.16 288.776C1210.4 288.861 1210.66 288.903 1210.94 288.903C1211.14 288.903 1211.32 288.889 1211.47 288.861C1211.63 288.832 1211.75 288.81 1211.83 288.793L1212.29 290.898C1212.15 290.955 1211.94 291.011 1211.66 291.068C1211.39 291.131 1211.05 291.165 1210.64 291.17C1209.97 291.182 1209.34 291.062 1208.76 290.812C1208.19 290.562 1207.72 290.176 1207.36 289.653C1207 289.131 1206.82 288.474 1206.82 287.685V274.773ZM1223.49 291.264C1222.2 291.264 1221.09 290.989 1220.16 290.438C1219.24 289.881 1218.52 289.099 1218.01 288.094C1217.51 287.082 1217.26 285.898 1217.26 284.54C1217.26 283.199 1217.51 282.017 1218.01 280.994C1218.52 279.972 1219.22 279.173 1220.13 278.599C1221.04 278.026 1222.1 277.739 1223.32 277.739C1224.05 277.739 1224.77 277.861 1225.46 278.105C1226.16 278.349 1226.78 278.733 1227.33 279.256C1227.88 279.778 1228.32 280.457 1228.63 281.293C1228.95 282.122 1229.11 283.131 1229.11 284.318V285.222H1218.7V283.312H1226.61C1226.61 282.642 1226.48 282.048 1226.2 281.531C1225.93 281.009 1225.55 280.597 1225.05 280.295C1224.57 279.994 1223.99 279.844 1223.33 279.844C1222.62 279.844 1221.99 280.02 1221.46 280.372C1220.93 280.719 1220.52 281.173 1220.23 281.736C1219.95 282.293 1219.8 282.898 1219.8 283.551V285.043C1219.8 285.918 1219.96 286.662 1220.26 287.276C1220.58 287.889 1221.01 288.358 1221.57 288.682C1222.13 289 1222.78 289.159 1223.52 289.159C1224 289.159 1224.44 289.091 1224.84 288.955C1225.24 288.812 1225.58 288.602 1225.87 288.324C1226.16 288.045 1226.38 287.702 1226.54 287.293L1228.95 287.727C1228.76 288.437 1228.41 289.06 1227.91 289.594C1227.42 290.122 1226.79 290.534 1226.04 290.83C1225.3 291.119 1224.45 291.264 1223.49 291.264ZM1239.96 291.256C1238.9 291.256 1237.96 290.986 1237.13 290.446C1236.31 289.901 1235.66 289.125 1235.19 288.119C1234.72 287.108 1234.49 285.895 1234.49 284.48C1234.49 283.065 1234.72 281.855 1235.2 280.849C1235.67 279.844 1236.33 279.074 1237.16 278.54C1237.98 278.006 1238.93 277.739 1239.98 277.739C1240.79 277.739 1241.44 277.875 1241.94 278.148C1242.44 278.415 1242.82 278.727 1243.1 279.085C1243.37 279.443 1243.59 279.759 1243.74 280.031H1243.9V273.545H1246.45V291H1243.96V288.963H1243.74C1243.59 289.241 1243.37 289.56 1243.08 289.918C1242.79 290.276 1242.4 290.588 1241.9 290.855C1241.4 291.122 1240.75 291.256 1239.96 291.256ZM1240.52 289.082C1241.25 289.082 1241.87 288.889 1242.38 288.503C1242.89 288.111 1243.28 287.568 1243.54 286.875C1243.81 286.182 1243.94 285.375 1243.94 284.455C1243.94 283.545 1243.81 282.75 1243.55 282.068C1243.29 281.386 1242.9 280.855 1242.4 280.474C1241.89 280.094 1241.27 279.903 1240.52 279.903C1239.75 279.903 1239.12 280.102 1238.6 280.5C1238.09 280.898 1237.71 281.44 1237.45 282.128C1237.19 282.815 1237.06 283.591 1237.06 284.455C1237.06 285.33 1237.19 286.116 1237.45 286.815C1237.71 287.514 1238.1 288.068 1238.61 288.477C1239.13 288.881 1239.77 289.082 1240.52 289.082ZM674.951 320L671.099 306.909H673.733L676.298 316.523H676.426L679 306.909H681.633L684.19 316.48H684.318L686.866 306.909H689.5L685.656 320H683.057L680.397 310.548H680.201L677.542 320H674.951ZM695.038 320V306.909H697.586V320H695.038ZM696.325 304.889C695.882 304.889 695.501 304.741 695.183 304.446C694.87 304.145 694.714 303.787 694.714 303.372C694.714 302.952 694.87 302.594 695.183 302.298C695.501 301.997 695.882 301.847 696.325 301.847C696.768 301.847 697.146 301.997 697.459 302.298C697.777 302.594 697.936 302.952 697.936 303.372C697.936 303.787 697.777 304.145 697.459 304.446C697.146 304.741 696.768 304.889 696.325 304.889ZM710.245 306.909V308.955H703.095V306.909H710.245ZM705.012 303.773H707.561V316.156C707.561 316.651 707.635 317.023 707.782 317.273C707.93 317.517 708.12 317.685 708.353 317.776C708.592 317.861 708.851 317.903 709.129 317.903C709.334 317.903 709.512 317.889 709.666 317.861C709.819 317.832 709.939 317.81 710.024 317.793L710.484 319.898C710.336 319.955 710.126 320.011 709.853 320.068C709.581 320.131 709.24 320.165 708.831 320.17C708.16 320.182 707.535 320.062 706.956 319.812C706.376 319.562 705.907 319.176 705.549 318.653C705.191 318.131 705.012 317.474 705.012 316.685V303.773ZM719.014 312.227V320H716.466V302.545H718.98V309.04H719.142C719.449 308.335 719.917 307.776 720.548 307.361C721.179 306.946 722.003 306.739 723.02 306.739C723.917 306.739 724.701 306.923 725.372 307.293C726.048 307.662 726.571 308.213 726.94 308.946C727.315 309.673 727.503 310.582 727.503 311.673V320H724.954V311.98C724.954 311.02 724.707 310.276 724.213 309.747C723.718 309.213 723.031 308.946 722.15 308.946C721.548 308.946 721.008 309.074 720.531 309.33C720.059 309.585 719.687 309.96 719.414 310.455C719.147 310.943 719.014 311.534 719.014 312.227ZM743.495 320V306.909H745.941V309.04H746.103C746.375 308.318 746.821 307.756 747.441 307.352C748.06 306.943 748.801 306.739 749.665 306.739C750.54 306.739 751.273 306.943 751.864 307.352C752.461 307.761 752.901 308.324 753.185 309.04H753.321C753.634 308.341 754.131 307.784 754.813 307.369C755.495 306.949 756.307 306.739 757.25 306.739C758.438 306.739 759.407 307.111 760.157 307.855C760.912 308.599 761.29 309.722 761.29 311.222V320H758.742V311.46C758.742 310.574 758.5 309.932 758.017 309.534C757.534 309.136 756.958 308.938 756.287 308.938C755.458 308.938 754.813 309.193 754.353 309.705C753.892 310.21 753.662 310.861 753.662 311.656V320H751.122V311.298C751.122 310.588 750.901 310.017 750.458 309.585C750.015 309.153 749.438 308.938 748.728 308.938C748.245 308.938 747.799 309.065 747.39 309.321C746.986 309.571 746.659 309.92 746.409 310.369C746.165 310.818 746.043 311.338 746.043 311.929V320H743.495ZM773.34 320.264C772.113 320.264 771.041 319.983 770.127 319.42C769.212 318.858 768.502 318.071 767.996 317.06C767.49 316.048 767.238 314.866 767.238 313.514C767.238 312.156 767.49 310.969 767.996 309.952C768.502 308.935 769.212 308.145 770.127 307.582C771.041 307.02 772.113 306.739 773.34 306.739C774.567 306.739 775.638 307.02 776.553 307.582C777.468 308.145 778.178 308.935 778.684 309.952C779.189 310.969 779.442 312.156 779.442 313.514C779.442 314.866 779.189 316.048 778.684 317.06C778.178 318.071 777.468 318.858 776.553 319.42C775.638 319.983 774.567 320.264 773.34 320.264ZM773.348 318.125C774.144 318.125 774.803 317.915 775.326 317.494C775.848 317.074 776.235 316.514 776.485 315.815C776.74 315.116 776.868 314.347 776.868 313.506C776.868 312.67 776.74 311.903 776.485 311.205C776.235 310.5 775.848 309.935 775.326 309.509C774.803 309.082 774.144 308.869 773.348 308.869C772.547 308.869 771.882 309.082 771.354 309.509C770.831 309.935 770.442 310.5 770.186 311.205C769.936 311.903 769.811 312.67 769.811 313.506C769.811 314.347 769.936 315.116 770.186 315.815C770.442 316.514 770.831 317.074 771.354 317.494C771.882 317.915 772.547 318.125 773.348 318.125ZM790.307 320.256C789.25 320.256 788.307 319.986 787.478 319.446C786.654 318.901 786.006 318.125 785.534 317.119C785.068 316.108 784.835 314.895 784.835 313.48C784.835 312.065 785.071 310.855 785.543 309.849C786.02 308.844 786.674 308.074 787.503 307.54C788.333 307.006 789.273 306.739 790.324 306.739C791.137 306.739 791.79 306.875 792.284 307.148C792.784 307.415 793.171 307.727 793.443 308.085C793.722 308.443 793.938 308.759 794.091 309.031H794.245V302.545H796.793V320H794.304V317.963H794.091C793.938 318.241 793.716 318.56 793.426 318.918C793.142 319.276 792.75 319.588 792.25 319.855C791.75 320.122 791.103 320.256 790.307 320.256ZM790.87 318.082C791.603 318.082 792.222 317.889 792.728 317.503C793.239 317.111 793.625 316.568 793.887 315.875C794.154 315.182 794.287 314.375 794.287 313.455C794.287 312.545 794.157 311.75 793.895 311.068C793.634 310.386 793.25 309.855 792.745 309.474C792.239 309.094 791.614 308.903 790.87 308.903C790.103 308.903 789.463 309.102 788.952 309.5C788.441 309.898 788.054 310.44 787.793 311.128C787.537 311.815 787.409 312.591 787.409 313.455C787.409 314.33 787.54 315.116 787.801 315.815C788.063 316.514 788.449 317.068 788.96 317.477C789.478 317.881 790.114 318.082 790.87 318.082ZM809.192 320.264C807.902 320.264 806.791 319.989 805.86 319.438C804.933 318.881 804.218 318.099 803.712 317.094C803.212 316.082 802.962 314.898 802.962 313.54C802.962 312.199 803.212 311.017 803.712 309.994C804.218 308.972 804.922 308.173 805.826 307.599C806.735 307.026 807.797 306.739 809.013 306.739C809.752 306.739 810.468 306.861 811.161 307.105C811.854 307.349 812.476 307.733 813.027 308.256C813.578 308.778 814.013 309.457 814.331 310.293C814.649 311.122 814.808 312.131 814.808 313.318V314.222H804.402V312.312H812.311C812.311 311.642 812.175 311.048 811.902 310.531C811.629 310.009 811.246 309.597 810.752 309.295C810.263 308.994 809.689 308.844 809.03 308.844C808.314 308.844 807.689 309.02 807.155 309.372C806.627 309.719 806.218 310.173 805.928 310.736C805.644 311.293 805.502 311.898 805.502 312.551V314.043C805.502 314.918 805.655 315.662 805.962 316.276C806.274 316.889 806.709 317.358 807.266 317.682C807.823 318 808.473 318.159 809.218 318.159C809.701 318.159 810.141 318.091 810.539 317.955C810.936 317.812 811.28 317.602 811.57 317.324C811.86 317.045 812.081 316.702 812.235 316.293L814.647 316.727C814.453 317.437 814.107 318.06 813.607 318.594C813.112 319.122 812.49 319.534 811.74 319.83C810.996 320.119 810.147 320.264 809.192 320.264ZM820.756 320V306.909H823.219V308.989H823.355C823.594 308.284 824.014 307.73 824.617 307.327C825.225 306.918 825.912 306.713 826.679 306.713C826.838 306.713 827.026 306.719 827.242 306.73C827.463 306.741 827.637 306.756 827.762 306.773V309.21C827.659 309.182 827.477 309.151 827.216 309.116C826.955 309.077 826.693 309.057 826.432 309.057C825.83 309.057 825.293 309.185 824.821 309.44C824.355 309.69 823.986 310.04 823.713 310.489C823.441 310.932 823.304 311.437 823.304 312.006V320H820.756ZM835.635 312.227V320H833.087V306.909H835.533V309.04H835.695C835.996 308.347 836.467 307.79 837.11 307.369C837.757 306.949 838.573 306.739 839.556 306.739C840.448 306.739 841.229 306.926 841.899 307.301C842.57 307.67 843.09 308.222 843.459 308.955C843.828 309.687 844.013 310.594 844.013 311.673V320H841.465V311.98C841.465 311.031 841.217 310.29 840.723 309.756C840.229 309.216 839.55 308.946 838.686 308.946C838.095 308.946 837.57 309.074 837.11 309.33C836.655 309.585 836.294 309.96 836.027 310.455C835.766 310.943 835.635 311.534 835.635 312.227ZM862.86 320L859.008 306.909H861.641L864.207 316.523H864.335L866.909 306.909H869.542L872.099 316.48H872.227L874.775 306.909H877.409L873.565 320H870.965L868.306 310.548H868.11L865.451 320H862.86ZM888.063 320.264C886.835 320.264 885.764 319.983 884.85 319.42C883.935 318.858 883.225 318.071 882.719 317.06C882.213 316.048 881.96 314.866 881.96 313.514C881.96 312.156 882.213 310.969 882.719 309.952C883.225 308.935 883.935 308.145 884.85 307.582C885.764 307.02 886.835 306.739 888.063 306.739C889.29 306.739 890.361 307.02 891.276 307.582C892.19 308.145 892.901 308.935 893.406 309.952C893.912 310.969 894.165 312.156 894.165 313.514C894.165 314.866 893.912 316.048 893.406 317.06C892.901 318.071 892.19 318.858 891.276 319.42C890.361 319.983 889.29 320.264 888.063 320.264ZM888.071 318.125C888.867 318.125 889.526 317.915 890.048 317.494C890.571 317.074 890.957 316.514 891.207 315.815C891.463 315.116 891.591 314.347 891.591 313.506C891.591 312.67 891.463 311.903 891.207 311.205C890.957 310.5 890.571 309.935 890.048 309.509C889.526 309.082 888.867 308.869 888.071 308.869C887.27 308.869 886.605 309.082 886.077 309.509C885.554 309.935 885.165 310.5 884.909 311.205C884.659 311.903 884.534 312.67 884.534 313.506C884.534 314.347 884.659 315.116 884.909 315.815C885.165 316.514 885.554 317.074 886.077 317.494C886.605 317.915 887.27 318.125 888.071 318.125ZM900.129 320V306.909H902.592V308.989H902.729C902.967 308.284 903.388 307.73 903.99 307.327C904.598 306.918 905.286 306.713 906.053 306.713C906.212 306.713 906.399 306.719 906.615 306.73C906.837 306.741 907.01 306.756 907.135 306.773V309.21C907.033 309.182 906.851 309.151 906.59 309.116C906.328 309.077 906.067 309.057 905.805 309.057C905.203 309.057 904.666 309.185 904.195 309.44C903.729 309.69 903.359 310.04 903.087 310.489C902.814 310.932 902.678 311.437 902.678 312.006V320H900.129ZM914.804 315.56L914.787 312.449H915.23L920.446 306.909H923.497L917.548 313.216H917.148L914.804 315.56ZM912.46 320V302.545H915.009V320H912.46ZM920.727 320L916.04 313.778L917.795 311.997L923.855 320H920.727ZM935.17 306.909V308.955H927.772V306.909H935.17ZM929.8 320V305.392C929.8 304.574 929.979 303.895 930.337 303.355C930.695 302.81 931.17 302.403 931.761 302.136C932.352 301.864 932.994 301.727 933.687 301.727C934.198 301.727 934.636 301.77 934.999 301.855C935.363 301.935 935.633 302.009 935.809 302.077L935.212 304.139C935.093 304.105 934.94 304.065 934.752 304.02C934.565 303.969 934.337 303.943 934.07 303.943C933.451 303.943 933.008 304.097 932.741 304.403C932.479 304.71 932.349 305.153 932.349 305.733V320H929.8ZM943.467 302.545V320H940.919V302.545H943.467ZM955.53 320.264C954.302 320.264 953.231 319.983 952.317 319.42C951.402 318.858 950.692 318.071 950.186 317.06C949.68 316.048 949.427 314.866 949.427 313.514C949.427 312.156 949.68 310.969 950.186 309.952C950.692 308.935 951.402 308.145 952.317 307.582C953.231 307.02 954.302 306.739 955.53 306.739C956.757 306.739 957.828 307.02 958.743 307.582C959.658 308.145 960.368 308.935 960.874 309.952C961.379 310.969 961.632 312.156 961.632 313.514C961.632 314.866 961.379 316.048 960.874 317.06C960.368 318.071 959.658 318.858 958.743 319.42C957.828 319.983 956.757 320.264 955.53 320.264ZM955.538 318.125C956.334 318.125 956.993 317.915 957.516 317.494C958.038 317.074 958.425 316.514 958.675 315.815C958.93 315.116 959.058 314.347 959.058 313.506C959.058 312.67 958.93 311.903 958.675 311.205C958.425 310.5 958.038 309.935 957.516 309.509C956.993 309.082 956.334 308.869 955.538 308.869C954.737 308.869 954.072 309.082 953.544 309.509C953.021 309.935 952.632 310.5 952.376 311.205C952.126 311.903 952.001 312.67 952.001 313.506C952.001 314.347 952.126 315.116 952.376 315.815C952.632 316.514 953.021 317.074 953.544 317.494C954.072 317.915 954.737 318.125 955.538 318.125ZM970.036 320L966.184 306.909H968.817L971.383 316.523H971.511L974.084 306.909H976.718L979.275 316.48H979.403L981.951 306.909H984.584L980.741 320H978.141L975.482 310.548H975.286L972.627 320H970.036ZM1003.4 320.29C1002.57 320.29 1001.82 320.136 1001.15 319.83C1000.48 319.517 999.952 319.065 999.56 318.474C999.174 317.884 998.981 317.159 998.981 316.301C998.981 315.562 999.123 314.955 999.407 314.477C999.691 314 1000.07 313.622 1000.56 313.344C1001.04 313.065 1001.58 312.855 1002.18 312.713C1002.77 312.571 1003.38 312.463 1004 312.389C1004.78 312.298 1005.42 312.224 1005.91 312.168C1006.4 312.105 1006.75 312.006 1006.97 311.869C1007.2 311.733 1007.31 311.511 1007.31 311.205V311.145C1007.31 310.401 1007.1 309.824 1006.68 309.415C1006.26 309.006 1005.64 308.801 1004.82 308.801C1003.96 308.801 1003.28 308.991 1002.79 309.372C1002.3 309.747 1001.96 310.165 1001.78 310.625L999.381 310.08C999.665 309.284 1000.08 308.642 1000.63 308.153C1001.18 307.659 1001.81 307.301 1002.53 307.08C1003.24 306.852 1003.99 306.739 1004.78 306.739C1005.31 306.739 1005.86 306.801 1006.45 306.926C1007.04 307.045 1007.59 307.267 1008.1 307.591C1008.62 307.915 1009.04 308.378 1009.37 308.98C1009.7 309.577 1009.86 310.352 1009.86 311.307V320H1007.38V318.21H1007.27C1007.11 318.54 1006.86 318.864 1006.53 319.182C1006.2 319.5 1005.78 319.764 1005.26 319.974C1004.74 320.185 1004.13 320.29 1003.4 320.29ZM1003.96 318.244C1004.66 318.244 1005.26 318.105 1005.76 317.827C1006.27 317.548 1006.65 317.185 1006.92 316.736C1007.18 316.281 1007.32 315.795 1007.32 315.278V313.591C1007.22 313.682 1007.05 313.767 1006.79 313.847C1006.53 313.92 1006.24 313.986 1005.91 314.043C1005.58 314.094 1005.26 314.142 1004.95 314.188C1004.63 314.227 1004.37 314.261 1004.16 314.29C1003.67 314.352 1003.22 314.457 1002.81 314.605C1002.4 314.753 1002.08 314.966 1001.84 315.244C1001.6 315.517 1001.48 315.881 1001.48 316.335C1001.48 316.966 1001.71 317.443 1002.18 317.767C1002.64 318.085 1003.24 318.244 1003.96 318.244ZM1018.93 312.227V320H1016.38V306.909H1018.82V309.04H1018.99C1019.29 308.347 1019.76 307.79 1020.4 307.369C1021.05 306.949 1021.86 306.739 1022.85 306.739C1023.74 306.739 1024.52 306.926 1025.19 307.301C1025.86 307.67 1026.38 308.222 1026.75 308.955C1027.12 309.687 1027.3 310.594 1027.3 311.673V320H1024.76V311.98C1024.76 311.031 1024.51 310.29 1024.01 309.756C1023.52 309.216 1022.84 308.946 1021.98 308.946C1021.39 308.946 1020.86 309.074 1020.4 309.33C1019.95 309.585 1019.59 309.96 1019.32 310.455C1019.06 310.943 1018.93 311.534 1018.93 312.227ZM1038.74 320.256C1037.69 320.256 1036.74 319.986 1035.91 319.446C1035.09 318.901 1034.44 318.125 1033.97 317.119C1033.5 316.108 1033.27 314.895 1033.27 313.48C1033.27 312.065 1033.51 310.855 1033.98 309.849C1034.46 308.844 1035.11 308.074 1035.94 307.54C1036.77 307.006 1037.71 306.739 1038.76 306.739C1039.57 306.739 1040.23 306.875 1040.72 307.148C1041.22 307.415 1041.61 307.727 1041.88 308.085C1042.16 308.443 1042.37 308.759 1042.53 309.031H1042.68V302.545H1045.23V320H1042.74V317.963H1042.53C1042.37 318.241 1042.15 318.56 1041.86 318.918C1041.58 319.276 1041.19 319.588 1040.69 319.855C1040.19 320.122 1039.54 320.256 1038.74 320.256ZM1039.31 318.082C1040.04 318.082 1040.66 317.889 1041.16 317.503C1041.67 317.111 1042.06 316.568 1042.32 315.875C1042.59 315.182 1042.72 314.375 1042.72 313.455C1042.72 312.545 1042.59 311.75 1042.33 311.068C1042.07 310.386 1041.69 309.855 1041.18 309.474C1040.67 309.094 1040.05 308.903 1039.31 308.903C1038.54 308.903 1037.9 309.102 1037.39 309.5C1036.88 309.898 1036.49 310.44 1036.23 311.128C1035.97 311.815 1035.84 312.591 1035.84 313.455C1035.84 314.33 1035.98 315.116 1036.24 315.815C1036.5 316.514 1036.88 317.068 1037.4 317.477C1037.91 317.881 1038.55 318.082 1039.31 318.082ZM1061.46 324.909V306.909H1063.95V309.031H1064.16C1064.31 308.759 1064.52 308.443 1064.8 308.085C1065.08 307.727 1065.46 307.415 1065.96 307.148C1066.45 306.875 1067.1 306.739 1067.92 306.739C1068.97 306.739 1069.92 307.006 1070.75 307.54C1071.58 308.074 1072.23 308.844 1072.7 309.849C1073.18 310.855 1073.41 312.065 1073.41 313.48C1073.41 314.895 1073.18 316.108 1072.71 317.119C1072.24 318.125 1071.59 318.901 1070.76 319.446C1069.94 319.986 1069 320.256 1067.94 320.256C1067.15 320.256 1066.5 320.122 1065.99 319.855C1065.49 319.588 1065.1 319.276 1064.82 318.918C1064.53 318.56 1064.31 318.241 1064.16 317.963H1064.01V324.909H1061.46ZM1063.95 313.455C1063.95 314.375 1064.09 315.182 1064.35 315.875C1064.62 316.568 1065.01 317.111 1065.51 317.503C1066.02 317.889 1066.64 318.082 1067.37 318.082C1068.13 318.082 1068.77 317.881 1069.28 317.477C1069.79 317.068 1070.18 316.514 1070.44 315.815C1070.71 315.116 1070.84 314.33 1070.84 313.455C1070.84 312.591 1070.71 311.815 1070.45 311.128C1070.19 310.44 1069.81 309.898 1069.29 309.5C1068.78 309.102 1068.14 308.903 1067.37 308.903C1066.63 308.903 1066.01 309.094 1065.5 309.474C1064.99 309.855 1064.61 310.386 1064.35 311.068C1064.08 311.75 1063.95 312.545 1063.95 313.455ZM1083.2 320.29C1082.37 320.29 1081.62 320.136 1080.95 319.83C1080.28 319.517 1079.75 319.065 1079.36 318.474C1078.97 317.884 1078.78 317.159 1078.78 316.301C1078.78 315.562 1078.92 314.955 1079.2 314.477C1079.49 314 1079.87 313.622 1080.35 313.344C1080.84 313.065 1081.38 312.855 1081.97 312.713C1082.57 312.571 1083.18 312.463 1083.8 312.389C1084.58 312.298 1085.22 312.224 1085.7 312.168C1086.19 312.105 1086.55 312.006 1086.77 311.869C1086.99 311.733 1087.1 311.511 1087.1 311.205V311.145C1087.1 310.401 1086.89 309.824 1086.47 309.415C1086.06 309.006 1085.44 308.801 1084.61 308.801C1083.76 308.801 1083.08 308.991 1082.59 309.372C1082.1 309.747 1081.76 310.165 1081.57 310.625L1079.18 310.08C1079.46 309.284 1079.88 308.642 1080.42 308.153C1080.97 307.659 1081.61 307.301 1082.32 307.08C1083.04 306.852 1083.79 306.739 1084.58 306.739C1085.1 306.739 1085.66 306.801 1086.24 306.926C1086.83 307.045 1087.38 307.267 1087.9 307.591C1088.41 307.915 1088.84 308.378 1089.17 308.98C1089.49 309.577 1089.66 310.352 1089.66 311.307V320H1087.17V318.21H1087.07C1086.9 318.54 1086.66 318.864 1086.33 319.182C1086 319.5 1085.57 319.764 1085.06 319.974C1084.54 320.185 1083.92 320.29 1083.2 320.29ZM1083.75 318.244C1084.46 318.244 1085.06 318.105 1085.56 317.827C1086.07 317.548 1086.45 317.185 1086.71 316.736C1086.98 316.281 1087.11 315.795 1087.11 315.278V313.591C1087.02 313.682 1086.84 313.767 1086.58 313.847C1086.33 313.92 1086.03 313.986 1085.7 314.043C1085.38 314.094 1085.05 314.142 1084.74 314.188C1084.43 314.227 1084.17 314.261 1083.96 314.29C1083.46 314.352 1083.01 314.457 1082.6 314.605C1082.2 314.753 1081.88 314.966 1081.63 315.244C1081.39 315.517 1081.27 315.881 1081.27 316.335C1081.27 316.966 1081.51 317.443 1081.97 317.767C1082.44 318.085 1083.03 318.244 1083.75 318.244ZM1101.69 320.264C1100.42 320.264 1099.33 319.977 1098.42 319.403C1097.51 318.824 1096.81 318.026 1096.32 317.009C1095.83 315.991 1095.59 314.827 1095.59 313.514C1095.59 312.185 1095.84 311.011 1096.34 309.994C1096.84 308.972 1097.54 308.173 1098.45 307.599C1099.36 307.026 1100.43 306.739 1101.66 306.739C1102.66 306.739 1103.54 306.923 1104.32 307.293C1105.1 307.656 1105.73 308.168 1106.2 308.827C1106.69 309.486 1106.97 310.256 1107.07 311.136H1104.59C1104.45 310.523 1104.14 309.994 1103.65 309.551C1103.17 309.108 1102.52 308.886 1101.7 308.886C1100.99 308.886 1100.37 309.074 1099.84 309.449C1099.31 309.818 1098.9 310.347 1098.6 311.034C1098.31 311.716 1098.16 312.523 1098.16 313.455C1098.16 314.409 1098.3 315.233 1098.59 315.926C1098.88 316.619 1099.29 317.156 1099.82 317.537C1100.36 317.918 1100.98 318.108 1101.7 318.108C1102.19 318.108 1102.63 318.02 1103.02 317.844C1103.42 317.662 1103.75 317.403 1104.01 317.068C1104.29 316.733 1104.48 316.33 1104.59 315.858H1107.07C1106.97 316.705 1106.7 317.46 1106.24 318.125C1105.78 318.79 1105.16 319.312 1104.39 319.693C1103.62 320.074 1102.72 320.264 1101.69 320.264ZM1115.25 315.56L1115.24 312.449H1115.68L1120.9 306.909H1123.95L1118 313.216H1117.6L1115.25 315.56ZM1112.91 320V302.545H1115.46V320H1112.91ZM1121.18 320L1116.49 313.778L1118.25 311.997L1124.31 320H1121.18ZM1133.2 320.29C1132.37 320.29 1131.62 320.136 1130.95 319.83C1130.28 319.517 1129.75 319.065 1129.36 318.474C1128.97 317.884 1128.78 317.159 1128.78 316.301C1128.78 315.562 1128.92 314.955 1129.2 314.477C1129.49 314 1129.87 313.622 1130.35 313.344C1130.84 313.065 1131.38 312.855 1131.97 312.713C1132.57 312.571 1133.18 312.463 1133.8 312.389C1134.58 312.298 1135.22 312.224 1135.71 312.168C1136.19 312.105 1136.55 312.006 1136.77 311.869C1136.99 311.733 1137.1 311.511 1137.1 311.205V311.145C1137.1 310.401 1136.89 309.824 1136.47 309.415C1136.06 309.006 1135.44 308.801 1134.61 308.801C1133.76 308.801 1133.08 308.991 1132.59 309.372C1132.1 309.747 1131.76 310.165 1131.57 310.625L1129.18 310.08C1129.46 309.284 1129.88 308.642 1130.42 308.153C1130.97 307.659 1131.61 307.301 1132.32 307.08C1133.04 306.852 1133.79 306.739 1134.58 306.739C1135.1 306.739 1135.66 306.801 1136.24 306.926C1136.83 307.045 1137.38 307.267 1137.9 307.591C1138.41 307.915 1138.84 308.378 1139.17 308.98C1139.5 309.577 1139.66 310.352 1139.66 311.307V320H1137.17V318.21H1137.07C1136.9 318.54 1136.66 318.864 1136.33 319.182C1136 319.5 1135.57 319.764 1135.06 319.974C1134.54 320.185 1133.92 320.29 1133.2 320.29ZM1133.75 318.244C1134.46 318.244 1135.06 318.105 1135.56 317.827C1136.07 317.548 1136.45 317.185 1136.71 316.736C1136.98 316.281 1137.11 315.795 1137.11 315.278V313.591C1137.02 313.682 1136.84 313.767 1136.58 313.847C1136.33 313.92 1136.04 313.986 1135.71 314.043C1135.38 314.094 1135.06 314.142 1134.74 314.188C1134.43 314.227 1134.17 314.261 1133.96 314.29C1133.46 314.352 1133.01 314.457 1132.6 314.605C1132.2 314.753 1131.88 314.966 1131.63 315.244C1131.39 315.517 1131.27 315.881 1131.27 316.335C1131.27 316.966 1131.51 317.443 1131.97 317.767C1132.44 318.085 1133.03 318.244 1133.75 318.244ZM1151.66 325.182C1150.62 325.182 1149.73 325.045 1148.98 324.773C1148.23 324.5 1147.63 324.139 1147.15 323.69C1146.68 323.241 1146.33 322.75 1146.1 322.216L1148.29 321.312C1148.44 321.562 1148.65 321.827 1148.9 322.105C1149.16 322.389 1149.52 322.631 1149.96 322.83C1150.41 323.028 1150.98 323.128 1151.69 323.128C1152.65 323.128 1153.45 322.892 1154.08 322.42C1154.71 321.955 1155.03 321.21 1155.03 320.188V317.614H1154.87C1154.71 317.892 1154.49 318.202 1154.2 318.543C1153.92 318.884 1153.53 319.179 1153.03 319.429C1152.53 319.679 1151.88 319.804 1151.07 319.804C1150.04 319.804 1149.11 319.562 1148.28 319.08C1147.46 318.591 1146.8 317.872 1146.32 316.923C1145.84 315.969 1145.6 314.795 1145.6 313.403C1145.6 312.011 1145.84 310.818 1146.31 309.824C1146.79 308.83 1147.44 308.068 1148.27 307.54C1149.1 307.006 1150.04 306.739 1151.09 306.739C1151.9 306.739 1152.56 306.875 1153.06 307.148C1153.56 307.415 1153.95 307.727 1154.23 308.085C1154.51 308.443 1154.73 308.759 1154.88 309.031H1155.07V306.909H1157.57V320.29C1157.57 321.415 1157.31 322.338 1156.79 323.06C1156.26 323.781 1155.55 324.315 1154.66 324.662C1153.78 325.009 1152.78 325.182 1151.66 325.182ZM1151.64 317.69C1152.37 317.69 1152.99 317.52 1153.5 317.179C1154.01 316.832 1154.39 316.338 1154.65 315.696C1154.92 315.048 1155.05 314.273 1155.05 313.369C1155.05 312.489 1154.92 311.713 1154.66 311.043C1154.4 310.372 1154.02 309.849 1153.51 309.474C1153.01 309.094 1152.38 308.903 1151.64 308.903C1150.87 308.903 1150.23 309.102 1149.72 309.5C1149.21 309.892 1148.82 310.426 1148.56 311.102C1148.3 311.778 1148.18 312.534 1148.18 313.369C1148.18 314.227 1148.31 314.98 1148.57 315.628C1148.83 316.276 1149.22 316.781 1149.73 317.145C1150.25 317.509 1150.88 317.69 1151.64 317.69ZM1169.75 320.264C1168.46 320.264 1167.35 319.989 1166.42 319.438C1165.49 318.881 1164.77 318.099 1164.27 317.094C1163.77 316.082 1163.52 314.898 1163.52 313.54C1163.52 312.199 1163.77 311.017 1164.27 309.994C1164.77 308.972 1165.48 308.173 1166.38 307.599C1167.29 307.026 1168.35 306.739 1169.57 306.739C1170.31 306.739 1171.02 306.861 1171.72 307.105C1172.41 307.349 1173.03 307.733 1173.58 308.256C1174.14 308.778 1174.57 309.457 1174.89 310.293C1175.21 311.122 1175.37 312.131 1175.37 313.318V314.222H1164.96V312.312H1172.87C1172.87 311.642 1172.73 311.048 1172.46 310.531C1172.19 310.009 1171.8 309.597 1171.31 309.295C1170.82 308.994 1170.25 308.844 1169.59 308.844C1168.87 308.844 1168.25 309.02 1167.71 309.372C1167.18 309.719 1166.77 310.173 1166.48 310.736C1166.2 311.293 1166.06 311.898 1166.06 312.551V314.043C1166.06 314.918 1166.21 315.662 1166.52 316.276C1166.83 316.889 1167.27 317.358 1167.82 317.682C1168.38 318 1169.03 318.159 1169.77 318.159C1170.26 318.159 1170.7 318.091 1171.1 317.955C1171.49 317.812 1171.84 317.602 1172.13 317.324C1172.42 317.045 1172.64 316.702 1172.79 316.293L1175.2 316.727C1175.01 317.437 1174.66 318.06 1174.16 318.594C1173.67 319.122 1173.05 319.534 1172.3 319.83C1171.55 320.119 1170.7 320.264 1169.75 320.264ZM833.278 349.256C832.221 349.256 831.278 348.986 830.448 348.446C829.624 347.901 828.977 347.125 828.505 346.119C828.039 345.108 827.806 343.895 827.806 342.48C827.806 341.065 828.042 339.855 828.514 338.849C828.991 337.844 829.644 337.074 830.474 336.54C831.303 336.006 832.244 335.739 833.295 335.739C834.107 335.739 834.761 335.875 835.255 336.148C835.755 336.415 836.141 336.727 836.414 337.085C836.693 337.443 836.909 337.759 837.062 338.031H837.215V331.545H839.764V349H837.275V346.963H837.062C836.909 347.241 836.687 347.56 836.397 347.918C836.113 348.276 835.721 348.588 835.221 348.855C834.721 349.122 834.073 349.256 833.278 349.256ZM833.84 347.082C834.573 347.082 835.193 346.889 835.698 346.503C836.21 346.111 836.596 345.568 836.857 344.875C837.124 344.182 837.258 343.375 837.258 342.455C837.258 341.545 837.127 340.75 836.866 340.068C836.605 339.386 836.221 338.855 835.715 338.474C835.21 338.094 834.585 337.903 833.84 337.903C833.073 337.903 832.434 338.102 831.923 338.5C831.411 338.898 831.025 339.44 830.764 340.128C830.508 340.815 830.38 341.591 830.38 342.455C830.38 343.33 830.511 344.116 830.772 344.815C831.034 345.514 831.42 346.068 831.931 346.477C832.448 346.881 833.085 347.082 833.84 347.082ZM852.163 349.264C850.873 349.264 849.762 348.989 848.83 348.438C847.904 347.881 847.188 347.099 846.683 346.094C846.183 345.082 845.933 343.898 845.933 342.54C845.933 341.199 846.183 340.017 846.683 338.994C847.188 337.972 847.893 337.173 848.796 336.599C849.705 336.026 850.768 335.739 851.984 335.739C852.722 335.739 853.438 335.861 854.132 336.105C854.825 336.349 855.447 336.733 855.998 337.256C856.549 337.778 856.984 338.457 857.302 339.293C857.62 340.122 857.779 341.131 857.779 342.318V343.222H847.373V341.312H855.282C855.282 340.642 855.146 340.048 854.873 339.531C854.6 339.009 854.217 338.597 853.722 338.295C853.234 337.994 852.66 337.844 852.001 337.844C851.285 337.844 850.66 338.02 850.126 338.372C849.597 338.719 849.188 339.173 848.899 339.736C848.614 340.293 848.472 340.898 848.472 341.551V343.043C848.472 343.918 848.626 344.662 848.933 345.276C849.245 345.889 849.68 346.358 850.237 346.682C850.793 347 851.444 347.159 852.188 347.159C852.671 347.159 853.112 347.091 853.509 346.955C853.907 346.812 854.251 346.602 854.541 346.324C854.83 346.045 855.052 345.702 855.205 345.293L857.617 345.727C857.424 346.437 857.078 347.06 856.578 347.594C856.083 348.122 855.461 348.534 854.711 348.83C853.967 349.119 853.117 349.264 852.163 349.264ZM863.727 353.909V335.909H866.215V338.031H866.428C866.576 337.759 866.789 337.443 867.068 337.085C867.346 336.727 867.732 336.415 868.227 336.148C868.721 335.875 869.374 335.739 870.187 335.739C871.244 335.739 872.187 336.006 873.016 336.54C873.846 337.074 874.497 337.844 874.968 338.849C875.445 339.855 875.684 341.065 875.684 342.48C875.684 343.895 875.448 345.108 874.977 346.119C874.505 347.125 873.857 347.901 873.033 348.446C872.21 348.986 871.269 349.256 870.212 349.256C869.417 349.256 868.766 349.122 868.261 348.855C867.761 348.588 867.369 348.276 867.085 347.918C866.801 347.56 866.582 347.241 866.428 346.963H866.275V353.909H863.727ZM866.224 342.455C866.224 343.375 866.357 344.182 866.624 344.875C866.891 345.568 867.278 346.111 867.783 346.503C868.289 346.889 868.908 347.082 869.641 347.082C870.403 347.082 871.039 346.881 871.551 346.477C872.062 346.068 872.448 345.514 872.71 344.815C872.977 344.116 873.11 343.33 873.11 342.455C873.11 341.591 872.979 340.815 872.718 340.128C872.462 339.44 872.076 338.898 871.559 338.5C871.048 338.102 870.408 337.903 869.641 337.903C868.903 337.903 868.278 338.094 867.766 338.474C867.261 338.855 866.877 339.386 866.616 340.068C866.354 340.75 866.224 341.545 866.224 342.455ZM887.301 349.264C886.011 349.264 884.901 348.989 883.969 348.438C883.043 347.881 882.327 347.099 881.821 346.094C881.321 345.082 881.071 343.898 881.071 342.54C881.071 341.199 881.321 340.017 881.821 338.994C882.327 337.972 883.031 337.173 883.935 336.599C884.844 336.026 885.906 335.739 887.122 335.739C887.861 335.739 888.577 335.861 889.27 336.105C889.963 336.349 890.585 336.733 891.136 337.256C891.688 337.778 892.122 338.457 892.44 339.293C892.759 340.122 892.918 341.131 892.918 342.318V343.222H882.511V341.312H890.421C890.421 340.642 890.284 340.048 890.011 339.531C889.739 339.009 889.355 338.597 888.861 338.295C888.372 337.994 887.798 337.844 887.139 337.844C886.423 337.844 885.798 338.02 885.264 338.372C884.736 338.719 884.327 339.173 884.037 339.736C883.753 340.293 883.611 340.898 883.611 341.551V343.043C883.611 343.918 883.764 344.662 884.071 345.276C884.384 345.889 884.818 346.358 885.375 346.682C885.932 347 886.582 347.159 887.327 347.159C887.81 347.159 888.25 347.091 888.648 346.955C889.046 346.812 889.389 346.602 889.679 346.324C889.969 346.045 890.19 345.702 890.344 345.293L892.756 345.727C892.563 346.437 892.216 347.06 891.716 347.594C891.222 348.122 890.6 348.534 889.85 348.83C889.105 349.119 888.256 349.264 887.301 349.264ZM901.413 341.227V349H898.865V335.909H901.311V338.04H901.473C901.774 337.347 902.246 336.79 902.888 336.369C903.536 335.949 904.351 335.739 905.334 335.739C906.226 335.739 907.007 335.926 907.678 336.301C908.348 336.67 908.868 337.222 909.237 337.955C909.607 338.687 909.791 339.594 909.791 340.673V349H907.243V340.98C907.243 340.031 906.996 339.29 906.501 338.756C906.007 338.216 905.328 337.946 904.465 337.946C903.874 337.946 903.348 338.074 902.888 338.33C902.433 338.585 902.072 338.96 901.805 339.455C901.544 339.943 901.413 340.534 901.413 341.227ZM921.229 349.256C920.173 349.256 919.229 348.986 918.4 348.446C917.576 347.901 916.928 347.125 916.457 346.119C915.991 345.108 915.758 343.895 915.758 342.48C915.758 341.065 915.994 339.855 916.465 338.849C916.942 337.844 917.596 337.074 918.425 336.54C919.255 336.006 920.195 335.739 921.246 335.739C922.059 335.739 922.712 335.875 923.207 336.148C923.707 336.415 924.093 336.727 924.366 337.085C924.644 337.443 924.86 337.759 925.014 338.031H925.167V331.545H927.715V349H925.227V346.963H925.014C924.86 347.241 924.639 347.56 924.349 347.918C924.065 348.276 923.673 348.588 923.173 348.855C922.673 349.122 922.025 349.256 921.229 349.256ZM921.792 347.082C922.525 347.082 923.144 346.889 923.65 346.503C924.161 346.111 924.548 345.568 924.809 344.875C925.076 344.182 925.21 343.375 925.21 342.455C925.21 341.545 925.079 340.75 924.817 340.068C924.556 339.386 924.173 338.855 923.667 338.474C923.161 338.094 922.536 337.903 921.792 337.903C921.025 337.903 920.386 338.102 919.874 338.5C919.363 338.898 918.977 339.44 918.715 340.128C918.46 340.815 918.332 341.591 918.332 342.455C918.332 343.33 918.462 344.116 918.724 344.815C918.985 345.514 919.371 346.068 919.883 346.477C920.4 346.881 921.036 347.082 921.792 347.082ZM940.114 349.264C938.825 349.264 937.714 348.989 936.782 348.438C935.856 347.881 935.14 347.099 934.634 346.094C934.134 345.082 933.884 343.898 933.884 342.54C933.884 341.199 934.134 340.017 934.634 338.994C935.14 337.972 935.844 337.173 936.748 336.599C937.657 336.026 938.719 335.739 939.935 335.739C940.674 335.739 941.39 335.861 942.083 336.105C942.776 336.349 943.398 336.733 943.95 337.256C944.501 337.778 944.935 338.457 945.254 339.293C945.572 340.122 945.731 341.131 945.731 342.318V343.222H935.325V341.312H943.234C943.234 340.642 943.097 340.048 942.825 339.531C942.552 339.009 942.168 338.597 941.674 338.295C941.185 337.994 940.611 337.844 939.952 337.844C939.236 337.844 938.611 338.02 938.077 338.372C937.549 338.719 937.14 339.173 936.85 339.736C936.566 340.293 936.424 340.898 936.424 341.551V343.043C936.424 343.918 936.577 344.662 936.884 345.276C937.197 345.889 937.631 346.358 938.188 346.682C938.745 347 939.396 347.159 940.14 347.159C940.623 347.159 941.063 347.091 941.461 346.955C941.859 346.812 942.202 346.602 942.492 346.324C942.782 346.045 943.004 345.702 943.157 345.293L945.569 345.727C945.376 346.437 945.029 347.06 944.529 347.594C944.035 348.122 943.413 348.534 942.663 348.83C941.918 349.119 941.069 349.264 940.114 349.264ZM954.227 341.227V349H951.678V335.909H954.124V338.04H954.286C954.587 337.347 955.059 336.79 955.701 336.369C956.349 335.949 957.164 335.739 958.147 335.739C959.039 335.739 959.82 335.926 960.491 336.301C961.161 336.67 961.681 337.222 962.05 337.955C962.42 338.687 962.604 339.594 962.604 340.673V349H960.056V340.98C960.056 340.031 959.809 339.29 959.315 338.756C958.82 338.216 958.141 337.946 957.278 337.946C956.687 337.946 956.161 338.074 955.701 338.33C955.246 338.585 954.886 338.96 954.619 339.455C954.357 339.943 954.227 340.534 954.227 341.227ZM974.656 349.264C973.389 349.264 972.298 348.977 971.383 348.403C970.474 347.824 969.775 347.026 969.287 346.009C968.798 344.991 968.554 343.827 968.554 342.514C968.554 341.185 968.804 340.011 969.304 338.994C969.804 337.972 970.508 337.173 971.418 336.599C972.327 336.026 973.398 335.739 974.631 335.739C975.625 335.739 976.511 335.923 977.29 336.293C978.068 336.656 978.696 337.168 979.173 337.827C979.656 338.486 979.943 339.256 980.034 340.136H977.554C977.418 339.523 977.105 338.994 976.616 338.551C976.133 338.108 975.486 337.886 974.673 337.886C973.963 337.886 973.341 338.074 972.807 338.449C972.278 338.818 971.866 339.347 971.571 340.034C971.275 340.716 971.128 341.523 971.128 342.455C971.128 343.409 971.273 344.233 971.562 344.926C971.852 345.619 972.261 346.156 972.79 346.537C973.324 346.918 973.952 347.108 974.673 347.108C975.156 347.108 975.594 347.02 975.986 346.844C976.383 346.662 976.716 346.403 976.983 346.068C977.256 345.733 977.446 345.33 977.554 344.858H980.034C979.943 345.705 979.668 346.46 979.207 347.125C978.747 347.79 978.131 348.312 977.358 348.693C976.591 349.074 975.69 349.264 974.656 349.264ZM985.879 349V335.909H988.427V349H985.879ZM987.166 333.889C986.723 333.889 986.342 333.741 986.024 333.446C985.712 333.145 985.555 332.787 985.555 332.372C985.555 331.952 985.712 331.594 986.024 331.298C986.342 330.997 986.723 330.847 987.166 330.847C987.609 330.847 987.987 330.997 988.3 331.298C988.618 331.594 988.777 331.952 988.777 332.372C988.777 332.787 988.618 333.145 988.3 333.446C987.987 333.741 987.609 333.889 987.166 333.889ZM1000.62 349.264C999.328 349.264 998.217 348.989 997.285 348.438C996.359 347.881 995.643 347.099 995.138 346.094C994.638 345.082 994.388 343.898 994.388 342.54C994.388 341.199 994.638 340.017 995.138 338.994C995.643 337.972 996.348 337.173 997.251 336.599C998.16 336.026 999.223 335.739 1000.44 335.739C1001.18 335.739 1001.89 335.861 1002.59 336.105C1003.28 336.349 1003.9 336.733 1004.45 337.256C1005 337.778 1005.44 338.457 1005.76 339.293C1006.08 340.122 1006.23 341.131 1006.23 342.318V343.222H995.828V341.312H1003.74C1003.74 340.642 1003.6 340.048 1003.33 339.531C1003.06 339.009 1002.67 338.597 1002.18 338.295C1001.69 337.994 1001.11 337.844 1000.46 337.844C999.74 337.844 999.115 338.02 998.581 338.372C998.052 338.719 997.643 339.173 997.354 339.736C997.069 340.293 996.927 340.898 996.927 341.551V343.043C996.927 343.918 997.081 344.662 997.388 345.276C997.7 345.889 998.135 346.358 998.692 346.682C999.248 347 999.899 347.159 1000.64 347.159C1001.13 347.159 1001.57 347.091 1001.96 346.955C1002.36 346.812 1002.71 346.602 1003 346.324C1003.29 346.045 1003.51 345.702 1003.66 345.293L1006.07 345.727C1005.88 346.437 1005.53 347.06 1005.03 347.594C1004.54 348.122 1003.92 348.534 1003.17 348.83C1002.42 349.119 1001.57 349.264 1000.62 349.264ZM1021.99 339.105L1019.68 339.514C1019.59 339.219 1019.43 338.937 1019.22 338.67C1019.02 338.403 1018.74 338.185 1018.39 338.014C1018.03 337.844 1017.59 337.759 1017.07 337.759C1016.34 337.759 1015.74 337.92 1015.26 338.244C1014.78 338.562 1014.53 338.974 1014.53 339.48C1014.53 339.918 1014.7 340.27 1015.02 340.537C1015.34 340.804 1015.87 341.023 1016.59 341.193L1018.67 341.67C1019.87 341.949 1020.77 342.378 1021.36 342.957C1021.95 343.537 1022.25 344.29 1022.25 345.216C1022.25 346 1022.02 346.699 1021.57 347.312C1021.12 347.92 1020.49 348.398 1019.68 348.744C1018.88 349.091 1017.95 349.264 1016.89 349.264C1015.43 349.264 1014.23 348.952 1013.31 348.327C1012.38 347.696 1011.81 346.801 1011.6 345.642L1014.07 345.267C1014.22 345.909 1014.53 346.395 1015.01 346.724C1015.49 347.048 1016.11 347.21 1016.88 347.21C1017.71 347.21 1018.38 347.037 1018.88 346.69C1019.38 346.338 1019.63 345.909 1019.63 345.403C1019.63 344.994 1019.48 344.651 1019.17 344.372C1018.87 344.094 1018.41 343.884 1017.78 343.741L1015.57 343.256C1014.34 342.977 1013.44 342.534 1012.85 341.926C1012.28 341.318 1011.99 340.548 1011.99 339.616C1011.99 338.844 1012.2 338.168 1012.63 337.588C1013.07 337.009 1013.66 336.557 1014.42 336.233C1015.18 335.903 1016.06 335.739 1017.04 335.739C1018.45 335.739 1019.57 336.045 1020.38 336.659C1021.19 337.267 1021.73 338.082 1021.99 339.105Z"
      fill="white" />
  </g>
  <defs>
    <filter id="filter0_d_1_15" x="0" y="-17" width="1399" height="533" filterUnits="userSpaceOnUse"
      color-interpolation-filters="sRGB">
      <feFlood flood-opacity="0" result="BackgroundImageFix" />
      <feColorMatrix in="SourceAlpha" type="matrix" values="0 0 0 0 0 0 0 0 0 0 0 0 0 0 0 0 0 0 127 0"
        result="hardAlpha" />
      <feOffset />
      <feGaussianBlur stdDeviation="25" />
      <feColorMatrix type="matrix" values="0 0 0 0 0 0 0 0 0 0 0 0 0 0 0 0 0 0 0.25 0" />
      <feBlend mode="normal" in2="BackgroundImageFix" result="effect1_dropShadow_1_15" />
      <feBlend mode="normal" in="SourceGraphic" in2="effect1_dropShadow_1_15" result="shape" />
    </filter>
    <filter id="filter1_d_1_15" x="20" y="7" width="1359" height="493" filterUnits="userSpaceOnUse"
      color-interpolation-filters="sRGB">
      <feFlood flood-opacity="0" result="BackgroundImageFix" />
      <feColorMatrix in="SourceAlpha" type="matrix" values="0 0 0 0 0 0 0 0 0 0 0 0 0 0 0 0 0 0 127 0"
        result="hardAlpha" />
      <feOffset dy="4" />
      <feGaussianBlur stdDeviation="15" />
      <feComposite in2="hardAlpha" operator="out" />
      <feColorMatrix type="matrix" values="0 0 0 0 0 0 0 0 0 0 0 0 0 0 0 0 0 0 0.25 0" />
      <feBlend mode="normal" in2="BackgroundImageFix" result="effect1_dropShadow_1_15" />
      <feBlend mode="normal" in="SourceGraphic" in2="effect1_dropShadow_1_15" result="shape" />
    </filter>
    <clipPath id="clip0_1_15">
      <rect width="268.841" height="268.841" fill="white" transform="translate(145.165 115.08)" />
    </clipPath>
  </defs>
</svg>